<?xml version="1.0" encoding="utf-8"?>
<svg xmlns="http://www.w3.org/2000/svg" xmlns:xlink="http://www.w3.org/1999/xlink">
    <symbol xmlns="http://www.w3.org/2000/svg" id="fb" viewBox="0 0 36.711 36.711">
        <path d="M36.711 34.686a2.025 2.025 0 0 1-2.026 2.025H25.33V22.495h4.771l.715-5.541H25.33v-3.537c0-1.604.445-2.696 2.746-2.696l2.934-.001V5.764c-.508-.067-2.249-.219-4.275-.219-4.23 0-7.127 2.582-7.127 7.323v4.086h-4.784v5.541h4.784v14.216H2.026A2.025 2.025 0 0 1 0 34.686V2.026C0 .907.907 0 2.026 0h32.659c1.119 0 2.026.907 2.026 2.026v32.66z"/>
    </symbol>
    <symbol xmlns="http://www.w3.org/2000/svg" id="inst" viewBox="0 0 36.663 36.664">
        <path d="M32.305 0H4.357A4.352 4.352 0 0 0 0 4.349v27.967c0 2.4 1.95 4.348 4.357 4.348h27.947a4.353 4.353 0 0 0 4.358-4.348V4.349A4.351 4.351 0 0 0 32.305 0m-5.953 5.729c0-.632.513-1.146 1.146-1.146h3.438c.632 0 1.145.514 1.145 1.146v3.438c0 .633-.513 1.146-1.145 1.146h-3.438a1.146 1.146 0 0 1-1.146-1.146V5.729zm-7.978 5.612c3.894 0 7.051 3.149 7.051 7.033 0 3.885-3.157 7.034-7.051 7.034s-7.051-3.148-7.051-7.034c0-3.884 3.157-7.033 7.051-7.033M33.226 32.08c0 .633-.513 1.146-1.146 1.146H4.583a1.147 1.147 0 0 1-1.146-1.146V14.895H8.02c-.597.858-.798 2.462-.798 3.479 0 6.135 5.003 11.127 11.152 11.127s11.153-4.992 11.153-11.127c0-1.018-.145-2.596-.885-3.479h4.583V32.08z"/>
    </symbol>
    <symbol xmlns="http://www.w3.org/2000/svg" id="phone" viewBox="0 0 11 11">
        <path d="M10.758 9.774c-.164.383-.602.633-.953.828-.461.25-.93.398-1.453.398-.727 0-1.383-.297-2.047-.539a7.313 7.313 0 0 1-1.367-.648c-1.328-.82-2.93-2.422-3.75-3.75A7.227 7.227 0 0 1 .54 4.695C.297 4.031 0 3.375 0 2.648c0-.523.148-.992.398-1.453.196-.352.446-.789.829-.953C1.485.125 2.032 0 2.313 0c.055 0 .109 0 .164.023.164.055.336.438.414.594.25.445.492.898.75 1.336.125.203.359.453.359.695 0 .477-1.414 1.172-1.414 1.594 0 .211.195.484.305.672.789 1.422 1.774 2.407 3.195 3.196.188.109.461.305.672.305C7.18 8.415 7.875 7 8.352 7c.242 0 .492.235.695.36.438.258.891.5 1.336.75.156.078.539.25.594.414a.406.406 0 0 1 .023.164c0 .281-.125.828-.242 1.086z"/>
    </symbol>
    <symbol xmlns="http://www.w3.org/2000/svg" id="twitter" viewBox="0 0 37.453 31.21">
        <path d="M36.421.577a15.112 15.112 0 0 1-4.884 1.909A7.575 7.575 0 0 0 25.93 0c-4.24 0-7.682 3.528-7.682 7.879 0 .618.066 1.217.198 1.794-6.385-.329-12.047-3.462-15.839-8.235a8.02 8.02 0 0 0-1.04 3.966c0 2.731 1.356 5.144 3.418 6.557a7.547 7.547 0 0 1-3.481-.981v.096c0 3.819 2.648 7.004 6.167 7.725a7.292 7.292 0 0 1-2.025.277c-.495 0-.979-.047-1.447-.139.979 3.129 3.815 5.408 7.179 5.469a15.172 15.172 0 0 1-9.544 3.375c-.619 0-1.232-.037-1.833-.109a21.388 21.388 0 0 0 11.778 3.537c14.136 0 21.863-12.004 21.863-22.417 0-.343-.006-.685-.021-1.021a15.749 15.749 0 0 0 3.832-4.078 15.04 15.04 0 0 1-4.412 1.24 7.861 7.861 0 0 0 3.38-4.358"/>
    </symbol>
    <symbol xmlns="http://www.w3.org/2000/svg" id="vk" viewBox="0 0 126 72">
        <defs>
            <path id="qa" d="M0 0h126v72H0z"/>
        </defs>
        <clipPath id="qb">
            <use overflow="visible" xlink:href="#qa"/>
        </clipPath>
        <path d="M124.523 64.503a8.35 8.35 0 0 0-.426-.816c-2.172-3.91-6.324-8.711-12.449-14.401l-.129-.134-.066-.063-.066-.066h-.063c-2.781-2.651-4.543-4.434-5.281-5.344-1.348-1.738-1.652-3.5-.914-5.281.523-1.348 2.477-4.19 5.867-8.538a447.262 447.262 0 0 0 4.234-5.539c7.52-9.996 10.777-16.383 9.777-19.164l-.387-.649c-.262-.39-.934-.75-2.02-1.074-1.086-.327-2.477-.383-4.172-.163l-18.772.127c-.301-.105-.738-.099-1.301.034l-.852.195-.323.166-.258.195c-.219.129-.457.354-.719.683a4.443 4.443 0 0 0-.648 1.142c-2.047 5.258-4.367 10.145-6.977 14.663-1.609 2.695-3.086 5.031-4.434 7.009-1.348 1.976-2.477 3.434-3.387 4.366-.914.935-1.738 1.685-2.477 2.246-.742.567-1.305.806-1.695.72-.391-.091-.762-.177-1.109-.263a4.288 4.288 0 0 1-1.465-1.597c-.371-.672-.621-1.52-.75-2.543a28.65 28.65 0 0 1-.23-2.637c-.02-.738-.008-1.785.035-3.129.043-1.349.066-2.263.066-2.738 0-1.653.031-3.446.094-5.379.066-1.935.121-3.465.164-4.594.043-1.13.066-2.324.066-3.587 0-1.258-.078-2.245-.23-2.965a9.987 9.987 0 0 0-.684-2.086c-.305-.672-.75-1.194-1.336-1.562-.586-.371-1.313-.664-2.18-.883-2.305-.521-5.238-.802-8.8-.849-8.082-.086-13.274.438-15.579 1.567-.914.476-1.738 1.129-2.476 1.953-.781.957-.891 1.479-.328 1.565 2.609.392 4.453 1.325 5.543 2.802l.39.784c.305.563.61 1.563.911 2.996.304 1.435.5 3.021.585 4.758.219 3.173.219 5.888 0 8.149-.214 2.257-.421 4.019-.617 5.277-.195 1.262-.488 2.28-.879 3.065-.39.782-.652 1.258-.785 1.435-.129.172-.238.28-.324.323a4.815 4.815 0 0 1-1.762.328c-.605 0-1.344-.304-2.215-.914-.867-.608-1.769-1.444-2.703-2.512-.933-1.062-1.988-2.55-3.164-4.464-1.172-1.911-2.386-4.168-3.648-6.778l-1.043-1.89c-.653-1.215-1.543-2.985-2.672-5.313a100.975 100.975 0 0 1-2.996-6.745c-.348-.91-.871-1.605-1.567-2.087l-.324-.194c-.219-.172-.566-.356-1.043-.556a7.006 7.006 0 0 0-1.5-.422l-17.858.133c-1.824 0-3.063.414-3.715 1.238l-.262.392C.066 5.113 0 5.46 0 5.938c0 .48.129 1.065.391 1.762a215.077 215.077 0 0 0 8.507 17.725c3.063 5.696 5.723 10.278 7.981 13.754a161.747 161.747 0 0 0 6.91 9.84c2.348 3.086 3.902 5.063 4.66 5.935a43.02 43.02 0 0 0 1.793 1.953l1.629 1.565c1.043 1.043 2.574 2.293 4.598 3.746 2.02 1.457 4.258 2.891 6.711 4.305 2.457 1.41 5.312 2.563 8.574 3.453 3.258.892 6.43 1.25 9.516 1.074h7.496c1.52-.129 2.672-.609 3.453-1.433l.258-.324c.176-.262.34-.665.488-1.208.152-.542.23-1.14.23-1.792-.043-1.868.098-3.551.422-5.051.324-1.496.695-2.625 1.109-3.388.414-.762.879-1.401 1.402-1.922.52-.522.891-.836 1.109-.944.215-.11.387-.185.52-.231 1.043-.347 2.27-.007 3.684 1.012 1.41 1.024 2.734 2.281 3.977 3.781 1.238 1.5 2.727 3.184 4.461 5.051 1.742 1.867 3.262 3.258 4.563 4.172l1.305.781c.871.524 2 1 3.391 1.435 1.391.437 2.605.547 3.648.327l16.688-.262c1.648 0 2.934-.272 3.844-.815.914-.544 1.453-1.142 1.629-1.789.176-.653.184-1.392.035-2.22-.158-.824-.31-1.402-.459-1.727zm0 0" clip-path="url(#qb)"/>
    </symbol>
    <symbol xmlns="http://www.w3.org/2000/svg" id="sk" viewBox="0 0 24 24">
        <path d="M18,24c-1.375,0-2.641-0.469-3.656-1.25C13.594,22.906,12.797,23,12,23C5.922,23,1,18.078,1,12
		c0-0.797,0.094-1.594,0.25-2.344C0.469,8.641,0,7.375,0,6c0-3.313,2.688-6,6-6c1.375,0,2.641,0.469,3.656,1.25
		C10.406,1.094,11.203,1,12,1c6.078,0,11,4.922,11,11c0,0.797-0.094,1.594-0.25,2.344C23.531,15.359,24,16.625,24,18
		C24,21.313,21.313,24,18,24z M13.469,10.453l-1.625-0.375c-1.188-0.281-2.078-0.484-2.078-1.391c0-0.828,0.875-1.203,2.25-1.203
		c2.453,0,2.5,1.797,4.016,1.797c1.016,0,1.625-0.797,1.625-1.703c0-1.797-2.984-2.969-5.938-2.969
		c-2.703,0-5.844,1.172-5.844,4.344c0,2.625,1.75,3.563,4.031,4.109l2.281,0.563c1.391,0.344,2.25,0.5,2.25,1.5
		c0,0.797-0.891,1.406-2.266,1.406c-2.891,0-3.047-2.406-4.719-2.406c-1.094,0-1.578,0.781-1.578,1.641
		c0,1.922,2.938,3.484,6.453,3.484c2.938,0,6-1.469,6-4.641C18.328,11.891,15.688,10.953,13.469,10.453z"/>
    </symbol>
        <symbol xmlns="http://www.w3.org/2000/svg" id="git" viewBox="0 0 26 22">
        <path d="M25.047,17.422C22.984,21.594,17.313,22,13.25,22c-4.125,0-10.141-0.359-12.281-4.578
		C0.172,15.844,0,13.984,0,12.25c0-2.281,0.625-4.438,2.125-6.188C1.844,5.203,1.703,4.297,1.703,3.406
		C1.703,2.234,1.969,1.063,2.5,0c2.469,0,4.047,1.078,5.922,2.547C10,2.172,11.625,2,13.25,2c1.469,0,2.953,0.156,4.375,0.5
		C19.484,1.047,21.063,0,23.5,0c0.531,1.063,0.797,2.234,0.797,3.406c0,0.891-0.141,1.781-0.422,2.625
		C25.375,7.797,26,9.969,26,12.25C26,13.984,25.828,15.828,25.047,17.422z M18.5,10.5c-1.031,0-2.016,0.188-3.047,0.328
		C14.641,10.953,13.828,11,13,11s-1.641-0.047-2.453-0.172C9.531,10.688,8.531,10.5,7.5,10.5c-2.547,0-4,2.109-4,4.5
		c0,4.781,4.375,5.516,8.188,5.516h2.625c3.813,0,8.188-0.734,8.188-5.516C22.5,12.609,21.047,10.5,18.5,10.5z M8,18
		c-1.406,0-2-1.859-2-3s0.594-3,2-3s2,1.859,2,3S9.406,18,8,18z M18,18c-1.406,0-2-1.859-2-3s0.594-3,2-3s2,1.859,2,3
		S19.406,18,18,18z"/>
    </symbol>
    <symbol xmlns="http://www.w3.org/2000/svg" id="in" viewBox="0 0 24 24"><path d="M19 0h-14c-2.761 0-5 2.239-5 5v14c0 2.761 2.239 5 5 5h14c2.762 0 5-2.239 5-5v-14c0-2.761-2.238-5-5-5zm-11 19h-3v-11h3v11zm-1.5-12.268c-.966 0-1.75-.79-1.75-1.764s.784-1.764 1.75-1.764 1.75.79 1.75 1.764-.783 1.764-1.75 1.764zm13.5 12.268h-3v-5.604c0-3.368-4-3.113-4 0v5.604h-3v-11h3v1.765c1.396-2.586 7-2.777 7 2.476v6.759z"/></symbol>
    <symbol id="mark" xmlns="http://www.w3.org/2000/svg" viewBox="0 0 24 24"><path d="M20.285 2l-11.285 11.567-5.286-5.011-3.714 3.716 9 8.728 15-15.285z"/></symbol>
    <symbol id="react" xmlns="http://www.w3.org/2000/svg" viewBox="0 0 50 50"><path d="M 34.554688 3.984375 C 33.775003 3.9581582 32.958884 4.0940926 32.140625 4.359375 C 30.504109 4.889941 28.789203 5.9238848 27.029297 7.3554688 C 26.339589 7.9165071 25.643623 8.5578288 24.945312 9.2382812 C 24.262398 8.5751039 23.580733 7.9509974 22.90625 7.4023438 C 21.147758 5.9719089 19.4375 4.9375672 17.804688 4.4082031 C 16.171878 3.8788386 14.547223 3.8624356 13.212891 4.6328125 C 11.878558 5.4031893 11.080619 6.8173558 10.722656 8.4960938 C 10.364693 10.174832 10.404125 12.173992 10.763672 14.412109 C 10.888559 15.189511 11.066671 16.005078 11.269531 16.835938 C 10.507095 17.067004 9.7666767 17.309955 9.0800781 17.578125 C 7.0079817 18.387438 5.2934468 19.355663 4.0449219 20.507812 C 2.7963969 21.659962 1.9902344 23.058304 1.9902344 24.59375 C 1.9902344 26.129196 2.7963969 27.525585 4.0449219 28.677734 C 5.2934468 29.829884 7.0079817 30.800062 9.0800781 31.609375 C 9.8142516 31.896126 10.609118 32.154326 11.429688 32.398438 C 11.134531 33.501278 10.895394 34.571467 10.732422 35.585938 C 10.372587 37.825853 10.334588 39.825265 10.693359 41.507812 C 11.052134 43.19036 11.850478 44.612534 13.191406 45.386719 C 14.532336 46.160905 16.164264 46.141894 17.800781 45.611328 C 19.437297 45.080762 21.15025 44.048772 22.910156 42.617188 C 23.593512 42.061316 24.284757 41.427206 24.976562 40.753906 C 25.671996 41.431263 26.366006 42.068338 27.052734 42.626953 C 28.811227 44.057387 30.523438 45.089776 32.15625 45.619141 C 33.789061 46.148505 35.413715 46.164908 36.748047 45.394531 C 38.082379 44.624154 38.878366 43.209988 39.236328 41.53125 C 39.59429 39.852512 39.554857 37.855304 39.195312 35.617188 C 39.031899 34.599965 38.792614 33.526227 38.496094 32.419922 C 39.343769 32.169866 40.163744 31.904721 40.919922 31.609375 C 42.992018 30.800062 44.706553 29.829884 45.955078 28.677734 C 47.203603 27.525585 48.009766 26.129196 48.009766 24.59375 C 48.009766 23.058304 47.203603 21.659963 45.955078 20.507812 C 44.706553 19.355663 42.992018 18.387438 40.919922 17.578125 C 40.22347 17.306107 39.471688 17.059992 38.697266 16.826172 C 38.901775 15.990221 39.083345 15.168805 39.208984 14.386719 C 39.568819 12.146804 39.606825 10.145439 39.248047 8.4628906 C 38.889279 6.7803434 38.088976 5.3601244 36.748047 4.5859375 C 36.077582 4.1988452 35.334372 4.0105918 34.554688 3.984375 z M 34.462891 6.0195312 C 34.952154 6.03291 35.369535 6.1493386 35.726562 6.3554688 C 36.440618 6.7677287 36.968419 7.5700924 37.25 8.890625 C 37.531581 10.211156 37.521848 11.99533 37.189453 14.064453 C 37.075647 14.772878 36.910402 15.52369 36.722656 16.292969 C 34.677151 15.800695 32.435744 15.435401 30.046875 15.220703 C 28.847638 13.559329 27.615404 12.045781 26.373047 10.703125 C 27.030182 10.061662 27.683063 9.4617259 28.320312 8.9433594 C 29.946026 7.6209332 31.485126 6.7210962 32.769531 6.3046875 C 33.411734 6.0964824 33.973627 6.0061525 34.462891 6.0195312 z M 15.486328 6.0253906 C 15.978419 6.0116533 16.541491 6.1017415 17.185547 6.3105469 C 18.473657 6.7281576 20.015452 7.6275969 21.642578 8.9511719 C 22.267037 9.4591336 22.905298 10.047651 23.548828 10.673828 C 22.297283 12.027473 21.054862 13.55414 19.847656 15.230469 C 17.468889 15.449074 15.236606 15.81635 13.201172 16.310547 C 13.014826 15.545537 12.849558 14.798586 12.736328 14.09375 C 12.403642 12.02283 12.39534 10.238404 12.677734 8.9140625 C 12.960128 7.5897208 13.492238 6.7813032 14.212891 6.3652344 C 14.573216 6.1572002 14.994237 6.0391279 15.486328 6.0253906 z M 24.976562 12.142578 C 25.791172 13.029071 26.605956 13.99916 27.414062 15.042969 C 26.620033 15.009861 25.816288 14.990234 25 14.990234 C 24.167457 14.990234 23.34841 15.010498 22.539062 15.044922 C 23.347352 14.000306 24.16175 13.029737 24.976562 12.142578 z M 25 17.009766 C 26.359894 17.009766 27.685348 17.065647 28.974609 17.160156 C 29.86173 18.434311 30.728648 19.786055 31.554688 21.216797 C 32.280504 22.473948 32.937328 23.729163 33.535156 24.96875 C 32.931017 26.224782 32.263184 27.496972 31.527344 28.771484 C 30.879609 29.893393 30.20319 30.958949 29.515625 31.986328 C 28.059313 32.10805 26.550303 32.175781 25 32.175781 C 23.412375 32.175781 21.869462 32.104031 20.380859 31.976562 C 19.704742 30.963955 19.039735 29.91454 18.402344 28.810547 C 17.668186 27.538949 17.003577 26.269079 16.400391 25.015625 C 17.006106 23.755092 17.673701 22.47818 18.412109 21.199219 C 19.233818 19.775977 20.098207 18.432055 20.980469 17.164062 C 22.283609 17.067424 23.62445 17.009766 25 17.009766 z M 31.548828 17.410156 C 33.197299 17.615841 34.745083 17.901405 36.185547 18.244141 C 35.758129 19.645287 35.231654 21.108808 34.59375 22.619141 C 34.179567 21.820719 33.750599 21.019585 33.287109 20.216797 C 32.725422 19.243926 32.140408 18.316416 31.548828 17.410156 z M 18.34375 17.425781 C 17.764654 18.315097 17.194836 19.224578 16.644531 20.177734 C 16.175094 20.990823 15.737221 21.802736 15.318359 22.611328 C 14.68596 21.110075 14.162654 19.654877 13.738281 18.261719 C 15.168002 17.918363 16.706766 17.633813 18.34375 17.425781 z M 38.164062 18.775391 C 38.872944 18.989877 39.557566 19.21371 40.185547 19.458984 C 42.0957 20.205046 43.60665 21.088493 44.585938 21.992188 C 45.565224 22.895882 45.990234 23.757696 45.990234 24.59375 C 45.990234 25.429804 45.565225 26.291619 44.585938 27.195312 C 43.60665 28.099007 42.0957 28.982454 40.185547 29.728516 C 39.487698 30.001079 38.72096 30.248243 37.923828 30.482422 C 37.355199 28.723643 36.629408 26.888772 35.765625 25.015625 C 36.758785 22.865083 37.561088 20.768289 38.164062 18.775391 z M 11.802734 18.785156 C 12.398803 20.758169 13.190811 22.834118 14.169922 24.962891 C 13.30047 26.846955 12.571087 28.692254 12 30.460938 C 11.23096 30.232919 10.490212 29.992451 9.8144531 29.728516 C 7.9042995 28.982454 6.39335 28.099007 5.4140625 27.195312 C 4.434775 26.291618 4.0097656 25.429804 4.0097656 24.59375 C 4.0097656 23.757696 4.434775 22.895882 5.4140625 21.992188 C 6.39335 21.088493 7.9042995 20.205046 9.8144531 19.458984 C 10.432774 19.217483 11.105915 18.996837 11.802734 18.785156 z M 25 20 C 22.250421 20 20 22.250421 20 25 C 20 27.749579 22.250421 30 25 30 C 27.749579 30 30 27.749579 30 25 C 30 22.250421 27.749579 20 25 20 z M 15.341797 27.365234 C 15.762496 28.177853 16.200028 28.993283 16.671875 29.810547 C 17.041048 30.449973 17.418073 31.072393 17.800781 31.683594 C 16.457817 31.497372 15.181231 31.261605 13.982422 30.982422 C 14.363652 29.81481 14.819744 28.602796 15.341797 27.365234 z M 34.619141 27.365234 C 35.143284 28.605725 35.599609 29.819681 35.982422 30.990234 C 34.779808 31.269089 33.499292 31.504052 32.152344 31.689453 C 32.540071 31.070779 32.922982 30.44057 33.296875 29.792969 C 33.765252 28.981717 34.201083 28.171917 34.619141 27.365234 z M 13.40625 32.923828 C 15.216074 33.352568 17.177716 33.681912 19.257812 33.896484 C 20.64638 35.904859 22.092967 37.709497 23.548828 39.287109 C 22.897813 39.921859 22.252566 40.517583 21.621094 41.03125 C 19.99538 42.353677 18.454326 43.251559 17.169922 43.667969 C 15.885516 44.084378 14.926946 44.029446 14.212891 43.617188 C 13.498835 43.204927 12.972987 42.402563 12.691406 41.082031 C 12.409825 39.761499 12.417606 37.979279 12.75 35.910156 C 12.900793 34.971492 13.12615 33.966374 13.40625 32.923828 z M 36.560547 32.931641 C 36.842987 33.980548 37.069013 34.98935 37.220703 35.933594 C 37.553389 38.004513 37.56169 39.788939 37.279297 41.113281 C 36.996903 42.437623 36.468699 43.247993 35.748047 43.664062 C 35.027395 44.080132 34.059594 44.13441 32.771484 43.716797 C 31.483374 43.299186 29.941578 42.399747 28.314453 41.076172 C 27.678439 40.558811 27.028726 39.958258 26.373047 39.318359 C 27.838664 37.73459 29.295467 35.920758 30.693359 33.900391 C 32.778701 33.687251 34.745791 33.359875 36.560547 32.931641 z M 21.867188 34.101562 C 22.893951 34.157518 23.934244 34.195312 25 34.195312 C 26.030504 34.195312 27.037063 34.159787 28.03125 34.107422 C 27.014961 35.478593 25.979034 36.725149 24.947266 37.847656 C 23.916125 36.722751 22.882144 35.473968 21.867188 34.101562 z"/></symbol>
    <symbol id="css" xmlns="http://www.w3.org/2000/svg" viewBox="0 0 512 512" style="enable-background:new 0 0 512 512;" xml:space="preserve">
		<path d="M487.915,3.52C485.888,1.28,483.008,0,480,0H32c-3.029,0-5.888,1.28-7.915,3.52c-2.027,2.219-3.008,5.205-2.709,8.213
			L64.043,438.4c0.405,4.16,3.243,7.723,7.232,9.045l192,64c1.088,0.384,2.24,0.555,3.371,0.555c1.28,0,2.539-0.235,3.776-0.683
			l170.667-64c3.797-1.408,6.464-4.885,6.869-8.917l42.667-426.667C490.923,8.747,489.941,5.739,487.915,3.52z M427.349,429.675
			l-160.917,60.352L84.565,429.397L43.755,21.333h424.427L427.349,429.675z"/>

		<path d="M402.816,110.485c-2.027-2.411-5.035-3.797-8.171-3.797h-256c-5.888,0-10.667,4.779-10.667,10.667
			s4.779,10.667,10.667,10.667h243.307l-14.827,85.312H149.312c-5.888,0-10.667,4.779-10.667,10.667s4.779,10.667,10.667,10.667
			h214.101l-20.907,120.171l-76.075,28.523l-86.549-28.864l-9.451-47.253c-1.131-5.76-6.699-9.536-12.544-8.363
			c-5.76,1.152-9.515,6.763-8.363,12.544l10.667,53.333c0.747,3.755,3.456,6.805,7.083,8.021l96,32
			c1.088,0.384,2.24,0.555,3.371,0.555c1.28,0,2.539-0.235,3.755-0.661l85.333-32c3.541-1.344,6.123-4.437,6.763-8.171
			l42.667-245.333C405.696,116.075,404.843,112.896,402.816,110.485z"/>
    </symbol>
    <symbol id="html" xmlns="http://www.w3.org/2000/svg" viewBox="0 0 512 512" style="enable-background:new 0 0 512 512;" xml:space="preserve">
		<path d="M487.915,3.52C485.888,1.28,483.008,0,480,0H32c-3.029,0-5.888,1.28-7.915,3.52c-2.027,2.219-3.008,5.205-2.709,8.213
			L64.043,438.4c0.405,4.16,3.243,7.723,7.232,9.045l192,64c1.088,0.384,2.24,0.555,3.371,0.555c1.28,0,2.539-0.235,3.776-0.683
			l170.667-64c3.797-1.408,6.464-4.885,6.869-8.917l42.667-426.667C490.923,8.747,489.941,5.739,487.915,3.52z M427.349,429.675
			l-160.917,60.352L84.565,429.397L43.755,21.333h424.427L427.349,429.675z"/>

        <path d="M394.645,106.667h-256c-3.029,0-5.888,1.28-7.915,3.52c-2.027,2.219-3.008,5.205-2.709,8.213l10.667,106.667
			c0.555,5.44,5.141,9.6,10.624,9.6h211.563L342.379,354.88l-75.947,28.48l-86.549-28.864l-9.451-47.253
			c-1.152-5.76-6.741-9.536-12.544-8.363c-5.76,1.152-9.515,6.763-8.363,12.544l10.667,53.333c0.747,3.755,3.456,6.805,7.083,8.021
			l96,32c1.088,0.384,2.24,0.555,3.371,0.555c1.28,0,2.539-0.235,3.755-0.683l85.333-32c3.605-1.344,6.208-4.544,6.784-8.363
			l21.333-138.667c0.469-3.093-0.427-6.208-2.453-8.576c-2.005-2.368-4.971-3.712-8.085-3.712H158.976L150.443,128h244.203
			c5.888,0,10.667-4.779,10.667-10.667S400.533,106.667,394.645,106.667z"/>
        </symbol>
    <symbol  id="js" xmlns="http://www.w3.org/2000/svg" viewBox="0 0 512 512" style="enable-background:new 0 0 512 512;" xml:space="preserve">
		<path d="M487.915,3.52C485.888,1.28,483.008,0,480,0H32c-3.029,0-5.888,1.28-7.915,3.52c-2.027,2.219-3.008,5.205-2.709,8.213
			L64.043,438.4c0.405,4.16,3.243,7.723,7.232,9.045l192,64c1.088,0.384,2.24,0.555,3.371,0.555c1.28,0,2.539-0.235,3.776-0.683
			l170.667-64c3.797-1.408,6.464-4.885,6.869-8.917l42.667-426.667C490.923,8.747,489.941,5.739,487.915,3.52z M427.349,429.675
			l-160.917,60.352L84.565,429.397L43.755,21.333h424.427L427.349,429.675z"/>

        <path d="M403.051,110.763c-2.027-2.581-5.12-4.096-8.405-4.096H287.979c-5.888,0-10.667,4.779-10.667,10.667v128
			c0,5.888,4.779,10.667,10.667,10.667h72.555l-17.92,98.539l-58.005,19.349c-5.589,1.856-8.597,7.893-6.741,13.483
			c1.493,4.48,5.653,7.296,10.112,7.296c1.109,0,2.24-0.171,3.392-0.533l64-21.333c3.691-1.237,6.421-4.373,7.104-8.213
			l21.333-117.333c0.576-3.115-0.277-6.315-2.304-8.747s-5.035-3.84-8.192-3.84h-74.667V128h82.325l-7.339,29.419
			c-1.429,5.717,2.048,11.499,7.765,12.928c5.653,1.408,11.499-2.048,12.928-7.765l10.667-42.667
			C405.781,116.715,405.077,113.344,403.051,110.763z"/>

        <path d="M245.291,106.667h-128c-5.888,0-10.667,4.779-10.667,10.667S111.403,128,117.291,128h117.333v241.856l-54.805-15.659
			l-9.387-46.955c-1.152-5.76-6.677-9.536-12.544-8.363c-5.76,1.152-9.515,6.763-8.363,12.544l10.667,53.333
			c0.789,3.925,3.691,7.061,7.531,8.171l74.667,21.333c0.96,0.277,1.941,0.405,2.923,0.405c2.283,0,4.544-0.747,6.4-2.155
			c2.667-2.005,4.245-5.163,4.245-8.512V117.333C255.957,111.445,251.179,106.667,245.291,106.667z"/>
    </symbol>
    <symbol id="arrowDown" xmlns="http://www.w3.org/2000/svg" viewBox="0 0 24 24"><path d="M0 7.33l2.829-2.83 9.175 9.339 9.167-9.339 2.829 2.83-11.996 12.17z"/></symbol>

    <symbol id="sun" xmlns="http://www.w3.org/2000/svg" viewBox="0 0 24 24"><path d="M22.088 13.126l1.912-1.126-1.912-1.126c-1.021-.602-1.372-1.91-.788-2.942l1.093-1.932-2.22-.02c-1.185-.01-2.143-.968-2.153-2.153l-.02-2.219-1.932 1.093c-1.031.583-2.34.233-2.941-.788l-1.127-1.913-1.127 1.913c-.602 1.021-1.91 1.372-2.941.788l-1.932-1.093-.02 2.219c-.01 1.185-.968 2.143-2.153 2.153l-2.22.02 1.093 1.932c.584 1.032.233 2.34-.788 2.942l-1.912 1.126 1.912 1.126c1.021.602 1.372 1.91.788 2.942l-1.093 1.932 2.22.02c1.185.01 2.143.968 2.153 2.153l.02 2.219 1.932-1.093c1.031-.583 2.34-.233 2.941.788l1.127 1.913 1.127-1.913c.602-1.021 1.91-1.372 2.941-.788l1.932 1.093.02-2.219c.011-1.185.969-2.143 2.153-2.153l2.22-.02-1.093-1.932c-.584-1.031-.234-2.34.788-2.942zm-10.117 6.874c-4.411 0-8-3.589-8-8s3.588-8 8-8 8 3.589 8 8-3.589 8-8 8zm6.029-8c0 3.313-2.687 6-6 6s-6-2.687-6-6 2.687-6 6-6 6 2.687 6 6z"/></symbol>

    <symbol id="moon" xmlns="http://www.w3.org/2000/svg" viewBox="0 0 24 24"><path d="M10.719 2.082c-2.572 2.028-4.719 5.212-4.719 9.918 0 4.569 1.938 7.798 4.548 9.895-4.829-.705-8.548-4.874-8.548-9.895 0-5.08 3.808-9.288 8.719-9.918zm1.281-2.082c-6.617 0-12 5.383-12 12s5.383 12 12 12c1.894 0 3.87-.333 5.37-1.179-3.453-.613-9.37-3.367-9.37-10.821 0-7.555 6.422-10.317 9.37-10.821-1.74-.682-3.476-1.179-5.37-1.179zm0 10.999c1.437.438 2.562 1.564 2.999 3.001.44-1.437 1.565-2.562 3.001-3-1.436-.439-2.561-1.563-3.001-3-.437 1.436-1.562 2.561-2.999 2.999zm8.001.001c.958.293 1.707 1.042 2 2.001.291-.959 1.042-1.709 1.999-2.001-.957-.292-1.707-1.042-2-2-.293.958-1.042 1.708-1.999 2zm-1-9c-.437 1.437-1.563 2.562-2.998 3.001 1.438.44 2.561 1.564 3.001 3.002.437-1.438 1.563-2.563 2.996-3.002-1.433-.437-2.559-1.564-2.999-3.001z"/></symbol>

    <symbol id="arrow" xmlns="http://www.w3.org/2000/svg" viewBox="0 0 24 24"><path d="M0 7.33l2.829-2.83 9.175 9.339 9.167-9.339 2.829 2.83-11.996 12.17z"/></symbol>

    <symbol id="arrow-right" xmlns="http://www.w3.org/2000/svg" viewBox="0 0 24 24"><path d="M13.025 1l-2.847 2.828 6.176 6.176h-16.354v3.992h16.354l-6.176 6.176 2.847 2.828 10.975-11z"/></symbol>

    <symbol id="clock" xmlns="http://www.w3.org/2000/svg" viewBox="0 0 24 24"><path d="M12 2c5.514 0 10 4.486 10 10s-4.486 10-10 10-10-4.486-10-10 4.486-10 10-10zm0-2c-6.627 0-12 5.373-12 12s5.373 12 12 12 12-5.373 12-12-5.373-12-12-12zm1 12v-6h-2v8h7v-2h-5z"/></symbol>

</svg>
