<?xml version="1.0" encoding="utf-8"?>
<svg xmlns="http://www.w3.org/2000/svg" xmlns:xlink="http://www.w3.org/1999/xlink">
    <symbol xmlns="http://www.w3.org/2000/svg" id="fb" viewBox="0 0 36.711 36.711">
        <path d="M36.711 34.686a2.025 2.025 0 0 1-2.026 2.025H25.33V22.495h4.771l.715-5.541H25.33v-3.537c0-1.604.445-2.696 2.746-2.696l2.934-.001V5.764c-.508-.067-2.249-.219-4.275-.219-4.23 0-7.127 2.582-7.127 7.323v4.086h-4.784v5.541h4.784v14.216H2.026A2.025 2.025 0 0 1 0 34.686V2.026C0 .907.907 0 2.026 0h32.659c1.119 0 2.026.907 2.026 2.026v32.66z"/>
    </symbol>
    <symbol xmlns="http://www.w3.org/2000/svg" id="inst" viewBox="0 0 36.663 36.664">
        <path d="M32.305 0H4.357A4.352 4.352 0 0 0 0 4.349v27.967c0 2.4 1.95 4.348 4.357 4.348h27.947a4.353 4.353 0 0 0 4.358-4.348V4.349A4.351 4.351 0 0 0 32.305 0m-5.953 5.729c0-.632.513-1.146 1.146-1.146h3.438c.632 0 1.145.514 1.145 1.146v3.438c0 .633-.513 1.146-1.145 1.146h-3.438a1.146 1.146 0 0 1-1.146-1.146V5.729zm-7.978 5.612c3.894 0 7.051 3.149 7.051 7.033 0 3.885-3.157 7.034-7.051 7.034s-7.051-3.148-7.051-7.034c0-3.884 3.157-7.033 7.051-7.033M33.226 32.08c0 .633-.513 1.146-1.146 1.146H4.583a1.147 1.147 0 0 1-1.146-1.146V14.895H8.02c-.597.858-.798 2.462-.798 3.479 0 6.135 5.003 11.127 11.152 11.127s11.153-4.992 11.153-11.127c0-1.018-.145-2.596-.885-3.479h4.583V32.08z"/>
    </symbol>
    <symbol xmlns="http://www.w3.org/2000/svg" id="phone" viewBox="0 0 11 11">
        <path d="M10.758 9.774c-.164.383-.602.633-.953.828-.461.25-.93.398-1.453.398-.727 0-1.383-.297-2.047-.539a7.313 7.313 0 0 1-1.367-.648c-1.328-.82-2.93-2.422-3.75-3.75A7.227 7.227 0 0 1 .54 4.695C.297 4.031 0 3.375 0 2.648c0-.523.148-.992.398-1.453.196-.352.446-.789.829-.953C1.485.125 2.032 0 2.313 0c.055 0 .109 0 .164.023.164.055.336.438.414.594.25.445.492.898.75 1.336.125.203.359.453.359.695 0 .477-1.414 1.172-1.414 1.594 0 .211.195.484.305.672.789 1.422 1.774 2.407 3.195 3.196.188.109.461.305.672.305C7.18 8.415 7.875 7 8.352 7c.242 0 .492.235.695.36.438.258.891.5 1.336.75.156.078.539.25.594.414a.406.406 0 0 1 .023.164c0 .281-.125.828-.242 1.086z"/>
    </symbol>
    <symbol xmlns="http://www.w3.org/2000/svg" id="twitter" viewBox="0 0 37.453 31.21">
        <path d="M36.421.577a15.112 15.112 0 0 1-4.884 1.909A7.575 7.575 0 0 0 25.93 0c-4.24 0-7.682 3.528-7.682 7.879 0 .618.066 1.217.198 1.794-6.385-.329-12.047-3.462-15.839-8.235a8.02 8.02 0 0 0-1.04 3.966c0 2.731 1.356 5.144 3.418 6.557a7.547 7.547 0 0 1-3.481-.981v.096c0 3.819 2.648 7.004 6.167 7.725a7.292 7.292 0 0 1-2.025.277c-.495 0-.979-.047-1.447-.139.979 3.129 3.815 5.408 7.179 5.469a15.172 15.172 0 0 1-9.544 3.375c-.619 0-1.232-.037-1.833-.109a21.388 21.388 0 0 0 11.778 3.537c14.136 0 21.863-12.004 21.863-22.417 0-.343-.006-.685-.021-1.021a15.749 15.749 0 0 0 3.832-4.078 15.04 15.04 0 0 1-4.412 1.24 7.861 7.861 0 0 0 3.38-4.358"/>
    </symbol>
    <symbol xmlns="http://www.w3.org/2000/svg" id="vk" viewBox="0 0 126 72">
        <defs>
            <path id="qa" d="M0 0h126v72H0z"/>
        </defs>
        <clipPath id="qb">
            <use overflow="visible" xlink:href="#qa"/>
        </clipPath>
        <path d="M124.523 64.503a8.35 8.35 0 0 0-.426-.816c-2.172-3.91-6.324-8.711-12.449-14.401l-.129-.134-.066-.063-.066-.066h-.063c-2.781-2.651-4.543-4.434-5.281-5.344-1.348-1.738-1.652-3.5-.914-5.281.523-1.348 2.477-4.19 5.867-8.538a447.262 447.262 0 0 0 4.234-5.539c7.52-9.996 10.777-16.383 9.777-19.164l-.387-.649c-.262-.39-.934-.75-2.02-1.074-1.086-.327-2.477-.383-4.172-.163l-18.772.127c-.301-.105-.738-.099-1.301.034l-.852.195-.323.166-.258.195c-.219.129-.457.354-.719.683a4.443 4.443 0 0 0-.648 1.142c-2.047 5.258-4.367 10.145-6.977 14.663-1.609 2.695-3.086 5.031-4.434 7.009-1.348 1.976-2.477 3.434-3.387 4.366-.914.935-1.738 1.685-2.477 2.246-.742.567-1.305.806-1.695.72-.391-.091-.762-.177-1.109-.263a4.288 4.288 0 0 1-1.465-1.597c-.371-.672-.621-1.52-.75-2.543a28.65 28.65 0 0 1-.23-2.637c-.02-.738-.008-1.785.035-3.129.043-1.349.066-2.263.066-2.738 0-1.653.031-3.446.094-5.379.066-1.935.121-3.465.164-4.594.043-1.13.066-2.324.066-3.587 0-1.258-.078-2.245-.23-2.965a9.987 9.987 0 0 0-.684-2.086c-.305-.672-.75-1.194-1.336-1.562-.586-.371-1.313-.664-2.18-.883-2.305-.521-5.238-.802-8.8-.849-8.082-.086-13.274.438-15.579 1.567-.914.476-1.738 1.129-2.476 1.953-.781.957-.891 1.479-.328 1.565 2.609.392 4.453 1.325 5.543 2.802l.39.784c.305.563.61 1.563.911 2.996.304 1.435.5 3.021.585 4.758.219 3.173.219 5.888 0 8.149-.214 2.257-.421 4.019-.617 5.277-.195 1.262-.488 2.28-.879 3.065-.39.782-.652 1.258-.785 1.435-.129.172-.238.28-.324.323a4.815 4.815 0 0 1-1.762.328c-.605 0-1.344-.304-2.215-.914-.867-.608-1.769-1.444-2.703-2.512-.933-1.062-1.988-2.55-3.164-4.464-1.172-1.911-2.386-4.168-3.648-6.778l-1.043-1.89c-.653-1.215-1.543-2.985-2.672-5.313a100.975 100.975 0 0 1-2.996-6.745c-.348-.91-.871-1.605-1.567-2.087l-.324-.194c-.219-.172-.566-.356-1.043-.556a7.006 7.006 0 0 0-1.5-.422l-17.858.133c-1.824 0-3.063.414-3.715 1.238l-.262.392C.066 5.113 0 5.46 0 5.938c0 .48.129 1.065.391 1.762a215.077 215.077 0 0 0 8.507 17.725c3.063 5.696 5.723 10.278 7.981 13.754a161.747 161.747 0 0 0 6.91 9.84c2.348 3.086 3.902 5.063 4.66 5.935a43.02 43.02 0 0 0 1.793 1.953l1.629 1.565c1.043 1.043 2.574 2.293 4.598 3.746 2.02 1.457 4.258 2.891 6.711 4.305 2.457 1.41 5.312 2.563 8.574 3.453 3.258.892 6.43 1.25 9.516 1.074h7.496c1.52-.129 2.672-.609 3.453-1.433l.258-.324c.176-.262.34-.665.488-1.208.152-.542.23-1.14.23-1.792-.043-1.868.098-3.551.422-5.051.324-1.496.695-2.625 1.109-3.388.414-.762.879-1.401 1.402-1.922.52-.522.891-.836 1.109-.944.215-.11.387-.185.52-.231 1.043-.347 2.27-.007 3.684 1.012 1.41 1.024 2.734 2.281 3.977 3.781 1.238 1.5 2.727 3.184 4.461 5.051 1.742 1.867 3.262 3.258 4.563 4.172l1.305.781c.871.524 2 1 3.391 1.435 1.391.437 2.605.547 3.648.327l16.688-.262c1.648 0 2.934-.272 3.844-.815.914-.544 1.453-1.142 1.629-1.789.176-.653.184-1.392.035-2.22-.158-.824-.31-1.402-.459-1.727zm0 0" clip-path="url(#qb)"/>
    </symbol>
    <symbol xmlns="http://www.w3.org/2000/svg" id="sk" viewBox="0 0 24 24">
        <path d="M18,24c-1.375,0-2.641-0.469-3.656-1.25C13.594,22.906,12.797,23,12,23C5.922,23,1,18.078,1,12
		c0-0.797,0.094-1.594,0.25-2.344C0.469,8.641,0,7.375,0,6c0-3.313,2.688-6,6-6c1.375,0,2.641,0.469,3.656,1.25
		C10.406,1.094,11.203,1,12,1c6.078,0,11,4.922,11,11c0,0.797-0.094,1.594-0.25,2.344C23.531,15.359,24,16.625,24,18
		C24,21.313,21.313,24,18,24z M13.469,10.453l-1.625-0.375c-1.188-0.281-2.078-0.484-2.078-1.391c0-0.828,0.875-1.203,2.25-1.203
		c2.453,0,2.5,1.797,4.016,1.797c1.016,0,1.625-0.797,1.625-1.703c0-1.797-2.984-2.969-5.938-2.969
		c-2.703,0-5.844,1.172-5.844,4.344c0,2.625,1.75,3.563,4.031,4.109l2.281,0.563c1.391,0.344,2.25,0.5,2.25,1.5
		c0,0.797-0.891,1.406-2.266,1.406c-2.891,0-3.047-2.406-4.719-2.406c-1.094,0-1.578,0.781-1.578,1.641
		c0,1.922,2.938,3.484,6.453,3.484c2.938,0,6-1.469,6-4.641C18.328,11.891,15.688,10.953,13.469,10.453z"/>
    </symbol>
    <symbol xmlns="http://www.w3.org/2000/svg" id="git" viewBox="0 0 26 22">
        <path d="M25.047,17.422C22.984,21.594,17.313,22,13.25,22c-4.125,0-10.141-0.359-12.281-4.578
		C0.172,15.844,0,13.984,0,12.25c0-2.281,0.625-4.438,2.125-6.188C1.844,5.203,1.703,4.297,1.703,3.406
		C1.703,2.234,1.969,1.063,2.5,0c2.469,0,4.047,1.078,5.922,2.547C10,2.172,11.625,2,13.25,2c1.469,0,2.953,0.156,4.375,0.5
		C19.484,1.047,21.063,0,23.5,0c0.531,1.063,0.797,2.234,0.797,3.406c0,0.891-0.141,1.781-0.422,2.625
		C25.375,7.797,26,9.969,26,12.25C26,13.984,25.828,15.828,25.047,17.422z M18.5,10.5c-1.031,0-2.016,0.188-3.047,0.328
		C14.641,10.953,13.828,11,13,11s-1.641-0.047-2.453-0.172C9.531,10.688,8.531,10.5,7.5,10.5c-2.547,0-4,2.109-4,4.5
		c0,4.781,4.375,5.516,8.188,5.516h2.625c3.813,0,8.188-0.734,8.188-5.516C22.5,12.609,21.047,10.5,18.5,10.5z M8,18
		c-1.406,0-2-1.859-2-3s0.594-3,2-3s2,1.859,2,3S9.406,18,8,18z M18,18c-1.406,0-2-1.859-2-3s0.594-3,2-3s2,1.859,2,3
		S19.406,18,18,18z"/>
    </symbol>
    <symbol xmlns="http://www.w3.org/2000/svg" id="in" viewBox="0 0 24 24"><path d="M19 0h-14c-2.761 0-5 2.239-5 5v14c0 2.761 2.239 5 5 5h14c2.762 0 5-2.239 5-5v-14c0-2.761-2.238-5-5-5zm-11 19h-3v-11h3v11zm-1.5-12.268c-.966 0-1.75-.79-1.75-1.764s.784-1.764 1.75-1.764 1.75.79 1.75 1.764-.783 1.764-1.75 1.764zm13.5 12.268h-3v-5.604c0-3.368-4-3.113-4 0v5.604h-3v-11h3v1.765c1.396-2.586 7-2.777 7 2.476v6.759z"/></symbol>
    <symbol id="mark" xmlns="http://www.w3.org/2000/svg" viewBox="0 0 24 24"><path d="M20.285 2l-11.285 11.567-5.286-5.011-3.714 3.716 9 8.728 15-15.285z"/></symbol>
    <symbol id="react" xmlns="http://www.w3.org/2000/svg" viewBox="0 0 50 50"><path d="M 34.554688 3.984375 C 33.775003 3.9581582 32.958884 4.0940926 32.140625 4.359375 C 30.504109 4.889941 28.789203 5.9238848 27.029297 7.3554688 C 26.339589 7.9165071 25.643623 8.5578288 24.945312 9.2382812 C 24.262398 8.5751039 23.580733 7.9509974 22.90625 7.4023438 C 21.147758 5.9719089 19.4375 4.9375672 17.804688 4.4082031 C 16.171878 3.8788386 14.547223 3.8624356 13.212891 4.6328125 C 11.878558 5.4031893 11.080619 6.8173558 10.722656 8.4960938 C 10.364693 10.174832 10.404125 12.173992 10.763672 14.412109 C 10.888559 15.189511 11.066671 16.005078 11.269531 16.835938 C 10.507095 17.067004 9.7666767 17.309955 9.0800781 17.578125 C 7.0079817 18.387438 5.2934468 19.355663 4.0449219 20.507812 C 2.7963969 21.659962 1.9902344 23.058304 1.9902344 24.59375 C 1.9902344 26.129196 2.7963969 27.525585 4.0449219 28.677734 C 5.2934468 29.829884 7.0079817 30.800062 9.0800781 31.609375 C 9.8142516 31.896126 10.609118 32.154326 11.429688 32.398438 C 11.134531 33.501278 10.895394 34.571467 10.732422 35.585938 C 10.372587 37.825853 10.334588 39.825265 10.693359 41.507812 C 11.052134 43.19036 11.850478 44.612534 13.191406 45.386719 C 14.532336 46.160905 16.164264 46.141894 17.800781 45.611328 C 19.437297 45.080762 21.15025 44.048772 22.910156 42.617188 C 23.593512 42.061316 24.284757 41.427206 24.976562 40.753906 C 25.671996 41.431263 26.366006 42.068338 27.052734 42.626953 C 28.811227 44.057387 30.523438 45.089776 32.15625 45.619141 C 33.789061 46.148505 35.413715 46.164908 36.748047 45.394531 C 38.082379 44.624154 38.878366 43.209988 39.236328 41.53125 C 39.59429 39.852512 39.554857 37.855304 39.195312 35.617188 C 39.031899 34.599965 38.792614 33.526227 38.496094 32.419922 C 39.343769 32.169866 40.163744 31.904721 40.919922 31.609375 C 42.992018 30.800062 44.706553 29.829884 45.955078 28.677734 C 47.203603 27.525585 48.009766 26.129196 48.009766 24.59375 C 48.009766 23.058304 47.203603 21.659963 45.955078 20.507812 C 44.706553 19.355663 42.992018 18.387438 40.919922 17.578125 C 40.22347 17.306107 39.471688 17.059992 38.697266 16.826172 C 38.901775 15.990221 39.083345 15.168805 39.208984 14.386719 C 39.568819 12.146804 39.606825 10.145439 39.248047 8.4628906 C 38.889279 6.7803434 38.088976 5.3601244 36.748047 4.5859375 C 36.077582 4.1988452 35.334372 4.0105918 34.554688 3.984375 z M 34.462891 6.0195312 C 34.952154 6.03291 35.369535 6.1493386 35.726562 6.3554688 C 36.440618 6.7677287 36.968419 7.5700924 37.25 8.890625 C 37.531581 10.211156 37.521848 11.99533 37.189453 14.064453 C 37.075647 14.772878 36.910402 15.52369 36.722656 16.292969 C 34.677151 15.800695 32.435744 15.435401 30.046875 15.220703 C 28.847638 13.559329 27.615404 12.045781 26.373047 10.703125 C 27.030182 10.061662 27.683063 9.4617259 28.320312 8.9433594 C 29.946026 7.6209332 31.485126 6.7210962 32.769531 6.3046875 C 33.411734 6.0964824 33.973627 6.0061525 34.462891 6.0195312 z M 15.486328 6.0253906 C 15.978419 6.0116533 16.541491 6.1017415 17.185547 6.3105469 C 18.473657 6.7281576 20.015452 7.6275969 21.642578 8.9511719 C 22.267037 9.4591336 22.905298 10.047651 23.548828 10.673828 C 22.297283 12.027473 21.054862 13.55414 19.847656 15.230469 C 17.468889 15.449074 15.236606 15.81635 13.201172 16.310547 C 13.014826 15.545537 12.849558 14.798586 12.736328 14.09375 C 12.403642 12.02283 12.39534 10.238404 12.677734 8.9140625 C 12.960128 7.5897208 13.492238 6.7813032 14.212891 6.3652344 C 14.573216 6.1572002 14.994237 6.0391279 15.486328 6.0253906 z M 24.976562 12.142578 C 25.791172 13.029071 26.605956 13.99916 27.414062 15.042969 C 26.620033 15.009861 25.816288 14.990234 25 14.990234 C 24.167457 14.990234 23.34841 15.010498 22.539062 15.044922 C 23.347352 14.000306 24.16175 13.029737 24.976562 12.142578 z M 25 17.009766 C 26.359894 17.009766 27.685348 17.065647 28.974609 17.160156 C 29.86173 18.434311 30.728648 19.786055 31.554688 21.216797 C 32.280504 22.473948 32.937328 23.729163 33.535156 24.96875 C 32.931017 26.224782 32.263184 27.496972 31.527344 28.771484 C 30.879609 29.893393 30.20319 30.958949 29.515625 31.986328 C 28.059313 32.10805 26.550303 32.175781 25 32.175781 C 23.412375 32.175781 21.869462 32.104031 20.380859 31.976562 C 19.704742 30.963955 19.039735 29.91454 18.402344 28.810547 C 17.668186 27.538949 17.003577 26.269079 16.400391 25.015625 C 17.006106 23.755092 17.673701 22.47818 18.412109 21.199219 C 19.233818 19.775977 20.098207 18.432055 20.980469 17.164062 C 22.283609 17.067424 23.62445 17.009766 25 17.009766 z M 31.548828 17.410156 C 33.197299 17.615841 34.745083 17.901405 36.185547 18.244141 C 35.758129 19.645287 35.231654 21.108808 34.59375 22.619141 C 34.179567 21.820719 33.750599 21.019585 33.287109 20.216797 C 32.725422 19.243926 32.140408 18.316416 31.548828 17.410156 z M 18.34375 17.425781 C 17.764654 18.315097 17.194836 19.224578 16.644531 20.177734 C 16.175094 20.990823 15.737221 21.802736 15.318359 22.611328 C 14.68596 21.110075 14.162654 19.654877 13.738281 18.261719 C 15.168002 17.918363 16.706766 17.633813 18.34375 17.425781 z M 38.164062 18.775391 C 38.872944 18.989877 39.557566 19.21371 40.185547 19.458984 C 42.0957 20.205046 43.60665 21.088493 44.585938 21.992188 C 45.565224 22.895882 45.990234 23.757696 45.990234 24.59375 C 45.990234 25.429804 45.565225 26.291619 44.585938 27.195312 C 43.60665 28.099007 42.0957 28.982454 40.185547 29.728516 C 39.487698 30.001079 38.72096 30.248243 37.923828 30.482422 C 37.355199 28.723643 36.629408 26.888772 35.765625 25.015625 C 36.758785 22.865083 37.561088 20.768289 38.164062 18.775391 z M 11.802734 18.785156 C 12.398803 20.758169 13.190811 22.834118 14.169922 24.962891 C 13.30047 26.846955 12.571087 28.692254 12 30.460938 C 11.23096 30.232919 10.490212 29.992451 9.8144531 29.728516 C 7.9042995 28.982454 6.39335 28.099007 5.4140625 27.195312 C 4.434775 26.291618 4.0097656 25.429804 4.0097656 24.59375 C 4.0097656 23.757696 4.434775 22.895882 5.4140625 21.992188 C 6.39335 21.088493 7.9042995 20.205046 9.8144531 19.458984 C 10.432774 19.217483 11.105915 18.996837 11.802734 18.785156 z M 25 20 C 22.250421 20 20 22.250421 20 25 C 20 27.749579 22.250421 30 25 30 C 27.749579 30 30 27.749579 30 25 C 30 22.250421 27.749579 20 25 20 z M 15.341797 27.365234 C 15.762496 28.177853 16.200028 28.993283 16.671875 29.810547 C 17.041048 30.449973 17.418073 31.072393 17.800781 31.683594 C 16.457817 31.497372 15.181231 31.261605 13.982422 30.982422 C 14.363652 29.81481 14.819744 28.602796 15.341797 27.365234 z M 34.619141 27.365234 C 35.143284 28.605725 35.599609 29.819681 35.982422 30.990234 C 34.779808 31.269089 33.499292 31.504052 32.152344 31.689453 C 32.540071 31.070779 32.922982 30.44057 33.296875 29.792969 C 33.765252 28.981717 34.201083 28.171917 34.619141 27.365234 z M 13.40625 32.923828 C 15.216074 33.352568 17.177716 33.681912 19.257812 33.896484 C 20.64638 35.904859 22.092967 37.709497 23.548828 39.287109 C 22.897813 39.921859 22.252566 40.517583 21.621094 41.03125 C 19.99538 42.353677 18.454326 43.251559 17.169922 43.667969 C 15.885516 44.084378 14.926946 44.029446 14.212891 43.617188 C 13.498835 43.204927 12.972987 42.402563 12.691406 41.082031 C 12.409825 39.761499 12.417606 37.979279 12.75 35.910156 C 12.900793 34.971492 13.12615 33.966374 13.40625 32.923828 z M 36.560547 32.931641 C 36.842987 33.980548 37.069013 34.98935 37.220703 35.933594 C 37.553389 38.004513 37.56169 39.788939 37.279297 41.113281 C 36.996903 42.437623 36.468699 43.247993 35.748047 43.664062 C 35.027395 44.080132 34.059594 44.13441 32.771484 43.716797 C 31.483374 43.299186 29.941578 42.399747 28.314453 41.076172 C 27.678439 40.558811 27.028726 39.958258 26.373047 39.318359 C 27.838664 37.73459 29.295467 35.920758 30.693359 33.900391 C 32.778701 33.687251 34.745791 33.359875 36.560547 32.931641 z M 21.867188 34.101562 C 22.893951 34.157518 23.934244 34.195312 25 34.195312 C 26.030504 34.195312 27.037063 34.159787 28.03125 34.107422 C 27.014961 35.478593 25.979034 36.725149 24.947266 37.847656 C 23.916125 36.722751 22.882144 35.473968 21.867188 34.101562 z"/></symbol>
    <symbol id="css" xmlns="http://www.w3.org/2000/svg" viewBox="0 0 512 512" style="enable-background:new 0 0 512 512;" xml:space="preserve">
		<path d="M487.915,3.52C485.888,1.28,483.008,0,480,0H32c-3.029,0-5.888,1.28-7.915,3.52c-2.027,2.219-3.008,5.205-2.709,8.213
			L64.043,438.4c0.405,4.16,3.243,7.723,7.232,9.045l192,64c1.088,0.384,2.24,0.555,3.371,0.555c1.28,0,2.539-0.235,3.776-0.683
			l170.667-64c3.797-1.408,6.464-4.885,6.869-8.917l42.667-426.667C490.923,8.747,489.941,5.739,487.915,3.52z M427.349,429.675
			l-160.917,60.352L84.565,429.397L43.755,21.333h424.427L427.349,429.675z"/>

        <path d="M402.816,110.485c-2.027-2.411-5.035-3.797-8.171-3.797h-256c-5.888,0-10.667,4.779-10.667,10.667
			s4.779,10.667,10.667,10.667h243.307l-14.827,85.312H149.312c-5.888,0-10.667,4.779-10.667,10.667s4.779,10.667,10.667,10.667
			h214.101l-20.907,120.171l-76.075,28.523l-86.549-28.864l-9.451-47.253c-1.131-5.76-6.699-9.536-12.544-8.363
			c-5.76,1.152-9.515,6.763-8.363,12.544l10.667,53.333c0.747,3.755,3.456,6.805,7.083,8.021l96,32
			c1.088,0.384,2.24,0.555,3.371,0.555c1.28,0,2.539-0.235,3.755-0.661l85.333-32c3.541-1.344,6.123-4.437,6.763-8.171
			l42.667-245.333C405.696,116.075,404.843,112.896,402.816,110.485z"/>
    </symbol>
    <symbol id="html" xmlns="http://www.w3.org/2000/svg" viewBox="0 0 512 512" style="enable-background:new 0 0 512 512;" xml:space="preserve">
		<path d="M487.915,3.52C485.888,1.28,483.008,0,480,0H32c-3.029,0-5.888,1.28-7.915,3.52c-2.027,2.219-3.008,5.205-2.709,8.213
			L64.043,438.4c0.405,4.16,3.243,7.723,7.232,9.045l192,64c1.088,0.384,2.24,0.555,3.371,0.555c1.28,0,2.539-0.235,3.776-0.683
			l170.667-64c3.797-1.408,6.464-4.885,6.869-8.917l42.667-426.667C490.923,8.747,489.941,5.739,487.915,3.52z M427.349,429.675
			l-160.917,60.352L84.565,429.397L43.755,21.333h424.427L427.349,429.675z"/>

        <path d="M394.645,106.667h-256c-3.029,0-5.888,1.28-7.915,3.52c-2.027,2.219-3.008,5.205-2.709,8.213l10.667,106.667
			c0.555,5.44,5.141,9.6,10.624,9.6h211.563L342.379,354.88l-75.947,28.48l-86.549-28.864l-9.451-47.253
			c-1.152-5.76-6.741-9.536-12.544-8.363c-5.76,1.152-9.515,6.763-8.363,12.544l10.667,53.333c0.747,3.755,3.456,6.805,7.083,8.021
			l96,32c1.088,0.384,2.24,0.555,3.371,0.555c1.28,0,2.539-0.235,3.755-0.683l85.333-32c3.605-1.344,6.208-4.544,6.784-8.363
			l21.333-138.667c0.469-3.093-0.427-6.208-2.453-8.576c-2.005-2.368-4.971-3.712-8.085-3.712H158.976L150.443,128h244.203
			c5.888,0,10.667-4.779,10.667-10.667S400.533,106.667,394.645,106.667z"/>
        </symbol>
    <symbol  id="js" xmlns="http://www.w3.org/2000/svg" viewBox="0 0 512 512" style="enable-background:new 0 0 512 512;" xml:space="preserve">
		<path d="M487.915,3.52C485.888,1.28,483.008,0,480,0H32c-3.029,0-5.888,1.28-7.915,3.52c-2.027,2.219-3.008,5.205-2.709,8.213
			L64.043,438.4c0.405,4.16,3.243,7.723,7.232,9.045l192,64c1.088,0.384,2.24,0.555,3.371,0.555c1.28,0,2.539-0.235,3.776-0.683
			l170.667-64c3.797-1.408,6.464-4.885,6.869-8.917l42.667-426.667C490.923,8.747,489.941,5.739,487.915,3.52z M427.349,429.675
			l-160.917,60.352L84.565,429.397L43.755,21.333h424.427L427.349,429.675z"/>

        <path d="M403.051,110.763c-2.027-2.581-5.12-4.096-8.405-4.096H287.979c-5.888,0-10.667,4.779-10.667,10.667v128
			c0,5.888,4.779,10.667,10.667,10.667h72.555l-17.92,98.539l-58.005,19.349c-5.589,1.856-8.597,7.893-6.741,13.483
			c1.493,4.48,5.653,7.296,10.112,7.296c1.109,0,2.24-0.171,3.392-0.533l64-21.333c3.691-1.237,6.421-4.373,7.104-8.213
			l21.333-117.333c0.576-3.115-0.277-6.315-2.304-8.747s-5.035-3.84-8.192-3.84h-74.667V128h82.325l-7.339,29.419
			c-1.429,5.717,2.048,11.499,7.765,12.928c5.653,1.408,11.499-2.048,12.928-7.765l10.667-42.667
			C405.781,116.715,405.077,113.344,403.051,110.763z"/>

        <path d="M245.291,106.667h-128c-5.888,0-10.667,4.779-10.667,10.667S111.403,128,117.291,128h117.333v241.856l-54.805-15.659
			l-9.387-46.955c-1.152-5.76-6.677-9.536-12.544-8.363c-5.76,1.152-9.515,6.763-8.363,12.544l10.667,53.333
			c0.789,3.925,3.691,7.061,7.531,8.171l74.667,21.333c0.96,0.277,1.941,0.405,2.923,0.405c2.283,0,4.544-0.747,6.4-2.155
			c2.667-2.005,4.245-5.163,4.245-8.512V117.333C255.957,111.445,251.179,106.667,245.291,106.667z"/>
    </symbol>
    <symbol id="arrowDown" xmlns="http://www.w3.org/2000/svg" viewBox="0 0 24 24"><path d="M0 7.33l2.829-2.83 9.175 9.339 9.167-9.339 2.829 2.83-11.996 12.17z"/></symbol>

    <symbol id="node" xmlns="http://www.w3.org/2000/svg"  viewBox="0 0 30 30"><path d="M26.96,9l-9.92-5.73c-0.63-0.36-1.46-0.36-2.09,0L5.04,8.99C4.4,9.36,4,10.06,4,10.8v10.38c0,0.75,0.4,1.44,1.04,1.81 l2.6,1.5c1.26,0.62,1.71,0.62,2.28,0.62c1.87,0,2.94-1.13,2.94-3.09V11.31c0-0.16-0.13-0.29-0.29-0.29h-1.25 c-0.17,0-0.29,0.13-0.29,0.29v10.7c0,0.88-0.91,1.74-2.38,1.01l-2.72-1.57c-0.1-0.05-0.16-0.16-0.16-0.27V10.81 c0-0.12,0.06-0.22,0.16-0.28l9.91-5.72c0.09-0.06,0.21-0.06,0.31,0l9.91,5.72c0.1,0.06,0.16,0.16,0.16,0.27v10.38 c0,0.11-0.06,0.22-0.15,0.27l-9.92,5.73c-0.09,0.05-0.22,0.05-0.31,0l-2.55-1.51c-0.07-0.05-0.17-0.06-0.24-0.02 c-0.71,0.4-0.84,0.45-1.5,0.68c-0.16,0.05-0.41,0.15,0.09,0.43l3.31,1.96C15.27,28.9,15.63,29,15.99,29c0.37,0,0.73-0.1,1.05-0.28 l9.92-5.73C27.6,22.62,28,21.93,28,21.18V10.81C28,10.06,27.6,9.37,26.96,9z"/><path d="M24,18.595c0,2.16-1.8,3.4-4.94,3.4c-4.34,0-5.25-1.99-5.25-3.66c0-0.15,0.12-0.28,0.28-0.28h1.29 c0.14,0,0.26,0.1,0.28,0.24c0.19,1.3,0.77,1.96,3.4,1.96c2.09,0,2.98-0.47,2.98-1.57c0-0.64-0.25-1.12-3.5-1.44 c-2.72-0.27-4.4-0.87-4.4-3.04c0-2,1.69-3.2,4.52-3.2c3.18,0,4.75,1.11,4.95,3.47c0.01,0.09-0.02,0.17-0.07,0.22 c-0.06,0.06-0.13,0.1-0.21,0.1h-1.29c-0.14,0-0.25-0.1-0.28-0.23c-0.31-1.37-1.07-1.81-3.1-1.81c-2.28,0-2.55,0.79-2.55,1.39 c0,0.72,0.31,0.93,3.4,1.33C22.55,15.885,24,16.455,24,18.595z"/></symbol>
    <symbol id="express" xmlns="http://www.w3.org/2000/svg" viewBox="0 0 1333.33 773.55" shape-rendering="geometricPrecision" text-rendering="geometricPrecision" image-rendering="optimizeQuality" fill-rule="evenodd" clip-rule="evenodd"><path d="M1333.33 753.49c-48.5 12.33-78.5.54-105.41-39.87L1036.5 448.79l-27.67-36.67L785.29 714.5c-25.54 36.38-52.33 52.2-100 39.33l286.25-384.25-266.5-347.09c45.83-8.91 77.5-4.38 105.62 36.67l198.54 268.13 200-266.67c25.62-36.38 53.17-50.2 99.17-36.8l-103.33 137-140 182.29c-16.67 20.83-14.38 35.09.96 55.2l267.33 355.18zM.34 363.16l23.41-115.17c63.75-227.92 325-322.63 505.17-181.8 105.29 82.83 131.46 200 126.25 331.25H61.67C52.76 633.69 222.8 776.27 439.58 703.53c76.04-25.54 120.83-85.09 143.25-159.58 11.38-37.33 30.2-43.17 65.29-32.5-17.91 93.17-58.33 171-143.75 219.71-127.62 72.91-309.8 49.33-405.62-52C41.66 620.36 18.08 545.87 7.5 466.2c-1.67-13.17-5-25.71-7.5-38.33.22-21.56.34-43.11.34-64.67v-.04zm62.41-15.83h536.33c-3.5-170.83-109.87-292.17-255.25-293.2-159.58-1.25-274.17 117.2-281.09 293.2h.01z" fill-rule="nonzero"/></symbol>
    <symbol id="mongo" viewBox="0 0 24 24" xmlns="http://www.w3.org/2000/svg"><title/><path d="M17.18 9.518c-1.263-5.56-4.242-7.387-4.562-8.086C12.266.939 11.885 0 11.885 0c-.002.019-.004.031-.005.049v.013h-.001c-.002.015-.003.025-.004.039v.015h-.002c0 .01-.002.018-.002.026v.026h-.003c-.001.008-.001.018-.003.025v.021h-.002c0 .007 0 .015-.002.021v.02h-.002c0 .01-.001.022-.002.032v.002c-.003.017-.006.034-.009.05v.008h-.002c-.001.004-.003.008-.003.012v.017h-.003v.022h-.005v.018h-.005v.021h-.004v.019h-.004v.017h-.006v.014h-.004v.018h-.004v.014h-.005v.013H11.8v.015h-.004c-.001.001-.001.003-.001.004v.01h-.003c-.001.002-.001.004-.001.006v.006h-.002c-.001.003-.002.008-.002.01-.003.007-.007.014-.01.021v.002c-.002.002-.004.005-.005.007v.008h-.004v.008h-.005v.008h-.003v.01h-.006v.014h-.004v.004h-.004v.008h-.004v.011h-.004v.008h-.006v.011h-.004v.008h-.005v.008h-.003v.01h-.005v.008h-.004v.006h-.004v.008h-.006V.76h-.004v.006h-.005v.008h-.004v.011h-.005v.004h-.003v.008h-.006v.004h-.004v.01h-.004v.004h-.004v.008h-.005v.006h-.003l-.002.004v.004h-.002c-.001.002-.002.002-.002.004v.001h-.001c-.001.003-.002.005-.004.007v.003h-.001c-.005.006-.008.012-.012.018v.001c-.002.002-.007.006-.009.01v.002h-.001c-.001.001-.003.002-.003.003v.003h-.002l-.003.003v.001h-.001c0 .001-.002.002-.003.004v.004h-.003l-.002.002v.002h-.002c0 .002-.002.002-.002.003v.003h-.004c0 .001-.001.002-.002.003V.92h-.003v.004h-.004V.93h-.004v.008h-.005V.93h-.005v.004h-.004V.94h-.005v.008h-.005v.004h-.004v.006h-.004v.004h-.004V.97h-.006v.004h-.004V.98h-.005v.004h-.004v.005h-.005v.01h-.002v.004h-.006v.005h-.004v.002h-.004v.004h-.005v.01h-.004v.004h-.005v.004h-.004v.006h-.005v.004h-.005v.004h-.004v.004h-.004v.01h-.004v.005h-.006v.004h-.004v.004h-.005v.006h-.004v.004h-.005v.007h-.004v.004h-.006V1.1h-.002v.004h-.004v.004h-.005v.004h-.004v.006h-.005v.004h-.003c-.001.001-.001.002-.001.002v.002h-.002l-.004.004s-.002.002-.004.003v.006h-.004v.005h-.004v.004h-.004v.004h-.003l-.003.003v.003h-.002l-.002.002v.003h-.002c-.005.006-.007.01-.014.016-.002.002-.008.007-.012.01-.012.008-.027.021-.039.032-.008.005-.016.012-.022.017v.001h-.001c-.016.013-.031.025-.049.039v.001c-.024.02-.047.039-.074.062V1.34h-.002c-.057.047-.117.1-.186.159V1.5h-.001c-.169.148-.37.338-.595.568l-.015.015-.004.004C9 3.494 6.857 6.426 6.631 11.164c-.02.392-.016.773.006 1.144v.009c.109 1.867.695 3.461 1.428 4.756v.001c.292.516.607.985.926 1.405v.001c1.102 1.455 2.227 2.317 2.514 2.526.441 1.023.4 2.779.4 2.779l.644.215s-.131-1.701.053-2.522c.057-.257.192-.476.349-.662.106-.075.42-.301.797-.645.018-.019.028-.036.044-.054 1.521-1.418 4.362-4.91 3.388-10.599z"/></symbol>
    <symbol id="api" xmlns="http://www.w3.org/2000/svg" xmlns:xlink="http://www.w3.org/1999/xlink"
            viewBox="0 0 511 511" style="enable-background:new 0 0 511 511;" xml:space="preserve">
    <g>
	<path d="M492.168,309.579l-17.626-10.177c2.96-14.723,4.458-29.466,4.458-43.902c0-14.646-1.474-29.403-4.384-43.946l17.552-10.134
		c5.436-3.138,9.325-8.206,10.949-14.269s0.791-12.396-2.348-17.832l-48-83.139c-3.139-5.436-8.206-9.325-14.269-10.949
		c-6.064-1.624-12.396-0.791-17.833,2.348l-17.566,10.142C380.912,68.2,354.798,53.092,327,43.692V23.5
		C327,10.542,316.458,0,303.5,0h-96C194.542,0,184,10.542,184,23.5v20.193c-27.65,9.362-53.728,24.49-75.999,44.088L90.332,77.579
		c-5.437-3.139-11.77-3.973-17.833-2.348c-6.063,1.625-11.13,5.513-14.269,10.949l-48,83.139
		c-3.139,5.436-3.972,11.769-2.348,17.832s5.513,11.131,10.949,14.269l17.626,10.177C33.499,226.32,32,241.063,32,255.5
		c0,14.644,1.474,29.401,4.384,43.945l-17.552,10.134c-11.222,6.479-15.08,20.879-8.602,32.102l48,83.139
		c6.479,11.221,20.879,15.08,32.102,8.601l17.565-10.142c22.19,19.521,48.303,34.629,76.103,44.03V487.5
		c0,12.958,10.542,23.5,23.5,23.5h96c12.958,0,23.5-10.542,23.5-23.5v-20.193c27.651-9.362,53.729-24.49,76-44.087l17.668,10.201
		c11.221,6.479,25.623,2.62,32.102-8.601l48-83.139C507.248,330.458,503.39,316.058,492.168,309.579z M487.779,334.181l-48,83.138
		c-2.343,4.06-7.552,5.455-11.611,3.111l-22.392-12.928c-2.845-1.643-6.43-1.242-8.842,0.989
		c-22.893,21.173-50.437,37.148-79.653,46.199c-3.14,0.973-5.281,3.877-5.281,7.164V487.5c0,4.687-3.813,8.5-8.5,8.5h-96
		c-4.687,0-8.5-3.813-8.5-8.5v-25.645c0-3.287-2.141-6.191-5.28-7.164c-29.396-9.107-56.974-25.062-79.755-46.139
		c-1.421-1.315-3.25-1.995-5.095-1.995c-1.286,0-2.579,0.33-3.748,1.005L82.832,420.43c-4.06,2.343-9.268,0.948-11.611-3.111
		l-48-83.138c-2.343-4.059-0.947-9.268,3.111-11.612l22.272-12.859c2.844-1.642,4.289-4.942,3.566-8.146
		C48.739,286.357,47,270.858,47,255.5c0-15.1,1.765-30.584,5.247-46.022c0.722-3.203-0.723-6.504-3.566-8.145L26.332,188.43
		c-1.966-1.135-3.372-2.968-3.96-5.161c-0.587-2.193-0.286-4.484,0.849-6.45l48-83.139c1.135-1.966,2.968-3.373,5.162-3.96
		c2.192-0.588,4.484-0.286,6.45,0.849l22.392,12.928c2.846,1.644,6.43,1.242,8.842-0.989c22.894-21.173,50.437-37.148,79.653-46.199
		c3.14-0.973,5.281-3.877,5.281-7.164V23.5c0-4.687,3.813-8.5,8.5-8.5h96c4.687,0,8.5,3.813,8.5,8.5v25.645
		c0,3.287,2.141,6.191,5.28,7.164c29.395,9.106,56.973,25.061,79.755,46.139c2.412,2.232,5.997,2.633,8.843,0.99l22.29-12.869
		c1.967-1.135,4.258-1.437,6.45-0.849c2.193,0.588,4.026,1.994,5.162,3.96l48,83.139c1.135,1.966,1.437,4.257,0.849,6.45
		c-0.588,2.193-1.994,4.026-3.96,5.161l-22.272,12.859c-2.844,1.642-4.289,4.943-3.566,8.146c3.431,15.206,5.17,30.704,5.17,46.065
		c0,15.1-1.765,30.584-5.247,46.021c-0.722,3.203,0.723,6.503,3.566,8.145l22.349,12.903
		C488.727,324.913,490.123,330.122,487.779,334.181z"/>
        <path d="M255.5,104C171.962,104,104,171.963,104,255.5S171.962,407,255.5,407S407,339.037,407,255.5S339.038,104,255.5,104z
		 M255.5,392C180.234,392,119,330.766,119,255.5S180.234,119,255.5,119S392,180.234,392,255.5S330.766,392,255.5,392z"/>
        <path d="M283.5,216h-28c-4.142,0-7.5,3.358-7.5,7.5v64c0,4.142,3.358,7.5,7.5,7.5s7.5-3.358,7.5-7.5V271h20.5
		c15.164,0,27.5-12.336,27.5-27.5S298.664,216,283.5,216z M283.5,256H263v-25h20.5c6.893,0,12.5,5.607,12.5,12.5
		S290.393,256,283.5,256z"/>
        <path d="M214.522,220.867c-1.098-2.927-3.896-4.867-7.022-4.867h-8c-3.126,0-5.925,1.939-7.022,4.867l-24,64
		c-1.455,3.878,0.511,8.201,4.389,9.656c3.878,1.455,8.201-0.511,9.656-4.389L186.697,279h33.605l4.175,11.133
		c1.129,3.011,3.987,4.869,7.023,4.869c0.875,0,1.765-0.154,2.632-0.479c3.878-1.454,5.844-5.778,4.389-9.656L214.522,220.867z
		 M192.322,264l11.178-29.807L214.678,264H192.322z"/>
        <path d="M327.5,216c-4.142,0-7.5,3.358-7.5,7.5v64c0,4.142,3.358,7.5,7.5,7.5s7.5-3.358,7.5-7.5v-64
		C335,219.358,331.642,216,327.5,216z"/>
        <path d="M309.152,87.3c5.205,1.659,10.394,3.586,15.421,5.726c0.958,0.408,1.954,0.601,2.934,0.601c2.916,0,5.69-1.712,6.904-4.564
		c1.622-3.811-0.152-8.216-3.963-9.838c-5.458-2.323-11.09-4.415-16.742-6.216c-3.945-1.258-8.165,0.922-9.423,4.868
		C303.026,81.823,305.206,86.042,309.152,87.3z"/>
        <path d="M100.45,339.904c-1.984-3.636-6.541-4.976-10.176-2.992c-3.636,1.984-4.976,6.54-2.992,10.176
		c3.112,5.704,6.557,11.315,10.239,16.677c1.454,2.117,3.801,3.255,6.189,3.255c1.463,0,2.941-0.427,4.239-1.318
		c3.415-2.345,4.282-7.014,1.937-10.428C106.493,350.332,103.318,345.161,100.45,339.904z"/>
        <path d="M240.14,431.341c-40.189-3.463-78.337-20.879-107.416-49.041c-2.976-2.882-7.724-2.805-10.605,0.17
		c-2.881,2.976-2.806,7.724,0.17,10.605c31.55,30.555,72.947,49.452,116.563,53.21c0.219,0.019,0.436,0.028,0.652,0.028
		c3.851,0,7.127-2.949,7.464-6.856C247.323,435.331,244.266,431.697,240.14,431.341z"/>
        <path d="M363.425,97.287c-3.42-2.337-8.087-1.459-10.424,1.96c-2.337,3.42-1.459,8.087,1.96,10.424
		c34.844,23.813,60.049,59.248,70.972,99.776c0.902,3.346,3.93,5.55,7.237,5.55c0.646,0,1.303-0.084,1.956-0.26
		c4-1.078,6.368-5.194,5.29-9.193C428.564,161.564,401.221,123.118,363.425,97.287z"/>
        </g>
    </symbol>
    <symbol id="arrowDown" xmlns="http://www.w3.org/2000/svg" viewBox="0 0 24 24"><path d="M0 7.33l2.829-2.83 9.175 9.339 9.167-9.339 2.829 2.83-11.996 12.17z"/></symbol>

    <symbol id="sun" xmlns="http://www.w3.org/2000/svg" viewBox="0 0 24 24"><path d="M22.088 13.126l1.912-1.126-1.912-1.126c-1.021-.602-1.372-1.91-.788-2.942l1.093-1.932-2.22-.02c-1.185-.01-2.143-.968-2.153-2.153l-.02-2.219-1.932 1.093c-1.031.583-2.34.233-2.941-.788l-1.127-1.913-1.127 1.913c-.602 1.021-1.91 1.372-2.941.788l-1.932-1.093-.02 2.219c-.01 1.185-.968 2.143-2.153 2.153l-2.22.02 1.093 1.932c.584 1.032.233 2.34-.788 2.942l-1.912 1.126 1.912 1.126c1.021.602 1.372 1.91.788 2.942l-1.093 1.932 2.22.02c1.185.01 2.143.968 2.153 2.153l.02 2.219 1.932-1.093c1.031-.583 2.34-.233 2.941.788l1.127 1.913 1.127-1.913c.602-1.021 1.91-1.372 2.941-.788l1.932 1.093.02-2.219c.011-1.185.969-2.143 2.153-2.153l2.22-.02-1.093-1.932c-.584-1.031-.234-2.34.788-2.942zm-10.117 6.874c-4.411 0-8-3.589-8-8s3.588-8 8-8 8 3.589 8 8-3.589 8-8 8zm6.029-8c0 3.313-2.687 6-6 6s-6-2.687-6-6 2.687-6 6-6 6 2.687 6 6z"/></symbol>

    <symbol id="moon" xmlns="http://www.w3.org/2000/svg" viewBox="0 0 24 24"><path d="M10.719 2.082c-2.572 2.028-4.719 5.212-4.719 9.918 0 4.569 1.938 7.798 4.548 9.895-4.829-.705-8.548-4.874-8.548-9.895 0-5.08 3.808-9.288 8.719-9.918zm1.281-2.082c-6.617 0-12 5.383-12 12s5.383 12 12 12c1.894 0 3.87-.333 5.37-1.179-3.453-.613-9.37-3.367-9.37-10.821 0-7.555 6.422-10.317 9.37-10.821-1.74-.682-3.476-1.179-5.37-1.179zm0 10.999c1.437.438 2.562 1.564 2.999 3.001.44-1.437 1.565-2.562 3.001-3-1.436-.439-2.561-1.563-3.001-3-.437 1.436-1.562 2.561-2.999 2.999zm8.001.001c.958.293 1.707 1.042 2 2.001.291-.959 1.042-1.709 1.999-2.001-.957-.292-1.707-1.042-2-2-.293.958-1.042 1.708-1.999 2zm-1-9c-.437 1.437-1.563 2.562-2.998 3.001 1.438.44 2.561 1.564 3.001 3.002.437-1.438 1.563-2.563 2.996-3.002-1.433-.437-2.559-1.564-2.999-3.001z"/></symbol>

    <symbol id="arrow" xmlns="http://www.w3.org/2000/svg" viewBox="0 0 24 24"><path d="M0 7.33l2.829-2.83 9.175 9.339 9.167-9.339 2.829 2.83-11.996 12.17z"/></symbol>

    <symbol id="arrow-right" xmlns="http://www.w3.org/2000/svg" viewBox="0 0 24 24"><path d="M13.025 1l-2.847 2.828 6.176 6.176h-16.354v3.992h16.354l-6.176 6.176 2.847 2.828 10.975-11z"/></symbol>

    <symbol id="clock" xmlns="http://www.w3.org/2000/svg" viewBox="0 0 24 24"><path d="M12 2c5.514 0 10 4.486 10 10s-4.486 10-10 10-10-4.486-10-10 4.486-10 10-10zm0-2c-6.627 0-12 5.373-12 12s5.373 12 12 12 12-5.373 12-12-5.373-12-12-12zm1 12v-6h-2v8h7v-2h-5z"/></symbol>

    <symbol id="redux"  xmlns="http://www.w3.org/2000/svg"  viewBox="0 0 50 50"><circle cx="22" cy="19" r="3" fill="none" stroke="#ffffff" stroke-miterlimit="10" stroke-width="2"/><circle cx="18" cy="36" r="3" fill="none" stroke="#ffffff" stroke-miterlimit="10" stroke-width="2"/><circle cx="34" cy="30" r="3" fill="none" stroke="#ffffff" stroke-miterlimit="10" stroke-width="2"/><path d="M38.17,21.488c-4.326-2.595-9.124-3.766-13.319-3.375C24.939,18.395,25,18.689,25,19c0,0.41-0.083,0.8-0.232,1.156	c3.832-0.444,8.302,0.606,12.374,3.047c7.894,4.732,11.87,12.983,8.863,18.392c-1.074,1.931-2.948,3.302-5.419,3.963	c-3.462,0.928-7.714,0.358-11.773-1.478c-0.586,0.471-1.206,0.917-1.844,1.348c3.325,1.679,6.844,2.569,10.094,2.569	c1.411,0,2.771-0.167,4.041-0.507c3.007-0.805,5.307-2.507,6.65-4.923C51.278,36.225,46.979,26.769,38.17,21.488z"/><path d="M24,2c-7.168,0-13,8.293-13,18.487c0,5.551,1.75,10.501,4.485,13.887c0.361-0.558,0.904-0.979,1.544-1.199	C14.58,30.151,13,25.603,13,20.487C13,11.396,17.935,4,24,4c5.419,0,9.924,5.909,10.825,13.65c0.707,0.269,1.408,0.573,2.103,0.907	C36.247,9.267,30.71,2,24,2z"/><path d="M34,33c-0.481,0-0.929-0.124-1.332-0.325c-1.423,3.733-4.576,7.476-8.99,10.122c-4.75,2.849-10.081,3.881-14.263,2.761	c-2.472-0.662-4.346-2.032-5.419-3.963c-2.542-4.573-0.081-11.168,5.506-15.961c-0.145-0.751-0.257-1.519-0.339-2.301	c-6.964,5.44-10.061,13.573-6.915,19.233c1.343,2.416,3.643,4.118,6.65,4.923c1.271,0.34,2.63,0.507,4.041,0.507	c3.8,0,7.972-1.208,11.768-3.484c4.959-2.973,8.433-7.267,9.932-11.584C34.432,32.973,34.22,33,34,33z"/></symbol>
    <symbol id="ts" xmlns="http://www.w3.org/2000/svg"  viewBox="0 0 50 50"><rect width="40" height="40" x="5" y="5" fill="none" stroke="#ffffff" stroke-linejoin="round" stroke-miterlimit="10" stroke-width="2"/><polygon points="15,26.445 20,26.445 20,42 24,42 24,26.445 29,26.445 29,23 15,23"/><path d="M34.209,28.15c0-1.083,0.769-2.096,2.9-2.096s4.018,1.258,4.018,1.258l0.14-3.704c0,0-11.25-3.075-11.25,4.717 c0,5.73,7.721,5.73,7.721,8.315c0,0.245,0.105,2.026-2.62,2.026c-2.725,0-4.996-1.712-4.996-1.712v4.158 c0,0,11.879,3.843,11.879-4.822C42,30.665,34.209,30.945,34.209,28.15z"/></symbol>
    <symbol id="graphql" xmlns="http://www.w3.org/2000/svg"  viewBox="0 0 48 48"><path fill="#ffffff" d="M24.5,45.161L7,34.82V14.18L24.5,3.839L42,14.18V34.82L24.5,45.161z M9,33.68l15.5,9.159L40,33.68 V15.32L24.5,6.161L9,15.32V33.68z"/><circle cx="24.5" cy="5.5" r="3.5" fill="#ffffff"/><circle cx="24.5" cy="43.5" r="3.5" fill="#ffffff"/><circle cx="8.5" cy="33.5" r="3.5" fill="#ffffff"/><circle cx="40.5" cy="33.5" r="3.5" fill="#ffffff"/><circle cx="8.5" cy="15.5" r="3.5" fill="#ffffff"/><circle cx="40.5" cy="15.5" r="3.5" fill="#ffffff"/><path fill="#ffffff" d="M42.72,35H6.28L24.5,2.978L42.72,35z M9.72,33H39.28L24.5,7.022L9.72,33z"/></symbol>
    <symbol id="aws" xmlns="http://www.w3.org/2000/svg"  viewBox="0 0 32 32"><path d="M28.547,13.96c-0.64-0.75-1.19-0.83-2.83-1.33c-0.14-0.04-1.35-0.35-1.34-1.2c-0.06-1.09,1.42-1.15,1.73-1.13 c1.25-0.02,1.87,0.45,2.21,0.48c0.15,0,0.22-0.09,0.22-0.29v-0.46c0.01-0.11-0.03-0.22-0.09-0.31c-0.4-0.52-1.93-0.71-2.49-0.71 c-2,0-3.15,1.25-3.12,2.52c0,1.74,1.76,2.29,1.96,2.35c1.69,0.53,1.92,0.55,2.39,0.95c0.4,0.41,0.35,1.21-0.24,1.56 c-0.17,0.1-0.9,0.54-2.55,0.2c-0.55-0.11-0.84-0.24-1.29-0.43c-0.12-0.04-0.4-0.11-0.4,0.26v0.49c0,0.23,0.14,0.44,0.35,0.54 c1.05,0.53,2.31,0.55,2.58,0.55c0.04,0,2.34,0.002,3.11-1.55C28.906,16.13,29.317,14.96,28.547,13.96z"/><path d="M22.207,9.65c-0.02,0.08,0.15-0.47-2.37,7.64c-0.05,0.24-0.22,0.5-0.58,0.46h-0.83c-0.49,0.05-0.56-0.43-0.57-0.48 l-1.49-6.17l-1.47,6.16c-0.01,0.05-0.08,0.53-0.58,0.48h-0.82c-0.35,0.04-0.51-0.22-0.56-0.46l-2.24-7.39 c-0.05-0.13-0.07-0.26-0.09-0.39c-0.02-0.11,0.06-0.22,0.17-0.24c0.02,0-0.09,0,1.01,0c0.39-0.04,0.52,0.27,0.56,0.47l1.6,6.32 l1.49-6.32c0.03-0.15,0.14-0.5,0.58-0.46h0.77c0.1-0.01,0.5-0.03,0.57,0.46l1.5,6.41l1.66-6.41c0.02-0.1,0.11-0.51,0.56-0.46h0.89 C22.007,9.26,22.247,9.23,22.207,9.65z"/><path d="M9.874,15.26v-3.12c0.06-0.86-0.22-1.7-0.8-2.35c-0.69-0.58-1.6-0.86-2.49-0.78c-1.36,0-2.74,0.53-2.97,0.82 c-0.06,0.12-0.2,1.09,0.13,1.09c0.11,0,0.16,0.02,0.48-0.13c1.2-0.47,1.96-0.46,2.07-0.46c1.35-0.13,2.13,0.79,2.01,1.98v0.7 c-1.14-0.27-1.79-0.28-2.11-0.28C4.534,12.63,3,13.506,3,15.43c0,2.11,1.884,2.56,2.614,2.53c1.09,0.01,2.13-0.48,2.82-1.33 c0.55,1.23,0.9,1.15,0.91,1.15c0.1,0,0.18-0.04,0.26-0.09l0.57-0.4c0.1-0.06,0.18-0.16,0.19-0.28 C10.354,16.72,9.834,16.27,9.874,15.26z M8.204,15.34c-0.14,0.48-0.76,1.35-2.22,1.37c-0.84,0.04-1.39-0.62-1.34-1.37 c-0.05-1.2,1.19-1.5,1.88-1.45c0.72,0.01,1.34,0.12,1.77,0.22C8.294,14.61,8.314,14.89,8.204,15.34z"/><path fill-rule="evenodd" d="M28.116,23.142C24.831,25.662,20.071,27,15.972,27 c-5.747,0-10.923-1.798-14.84-5.472c-0.304-0.292-0.033-0.686,0.337-0.462c4.226,2.559,9.449,3.686,14.845,3.686 c3.641,0,7.642-0.783,11.325-2.408C28.196,22.096,28.659,22.723,28.116,23.142z" clip-rule="evenodd"/><path fill-rule="evenodd" d="M29.651,21.317c-0.374-0.478-2.467-0.225-3.407-0.112 c-0.287,0.033-0.333-0.216-0.075-0.395c1.672-1.173,4.409-0.836,4.73-0.441c0.32,0.395-0.087,3.141-1.651,4.451 c-0.241,0.2-0.47,0.092-0.362-0.171C29.235,23.767,30.026,21.795,29.651,21.317z" clip-rule="evenodd"/></symbol>
    <symbol id="cms" viewBox="0 -44 512 512" xmlns="http://www.w3.org/2000/svg"><g fill-rule="evenodd"><path d="m502 202.988281h-33.011719v-29.660156c0-5.523437-4.476562-10-10-10h-22.746093c-4.097657-14.90625-10.023438-29.195313-17.6875-42.65625l16.097656-16.097656c1.875-1.875 2.929687-4.421875 2.929687-7.070313 0-2.652344-1.054687-5.195312-2.929687-7.074218l-56.09375-56.09375c-3.902344-3.902344-10.234375-3.902344-14.140625 0l-16.101563 16.101562c-13.460937-7.667969-27.753906-13.59375-42.652344-17.691406v-22.746094c0-5.523438-4.476562-10-10-10h-79.328124c-5.523438 0-10 4.476562-10 10v22.746094c-14.902344 4.097656-29.195313 10.023437-42.65625 17.691406l-16.097657-16.101562c-3.90625-3.902344-10.238281-3.902344-14.144531 0l-56.09375 56.09375c-1.875 1.875-2.929688 4.417968-2.929688 7.070312s1.054688 5.195312 2.929688 7.070312l16.101562 16.101563c-7.671874 13.46875-13.597656 27.761719-17.691406 42.652344h-22.742187c-5.523438 0-10 4.480469-10 10v29.664062h-33.011719c-5.523438 0-10 4.480469-10 10 0 5.523438 4.476562 10 10 10h206c5.523438 0 10-4.476562 10-10 0-5.519531-4.476562-10-10-10h-43.121094c4.960938-41.472656 40.332032-73.738281 83.121094-73.738281s78.160156 32.265625 83.121094 73.738281h-43.121094c-5.523438 0-10 4.480469-10 10 0 5.523438 4.476562 10 10 10h206c5.523438 0 10-4.476562 10-10 0-5.519531-4.476562-10-10-10zm-246-93.738281c-53.828125 0-98.210938 41.214844-103.257812 93.738281h-89.730469v-19.660156h20.535156c4.664063 0 8.707031-3.222656 9.75-7.769531 4.144531-18.109375 11.28125-35.3125 21.203125-51.132813 2.476562-3.949219 1.898438-9.089843-1.398438-12.386719l-14.542968-14.539062 41.953125-41.949219 14.539062 14.539063c3.300781 3.296875 8.4375 3.875 12.386719 1.398437 15.804688-9.917969 33.007812-17.050781 51.132812-21.207031 4.542969-1.039062 7.765626-5.082031 7.765626-9.746094v-20.535156h59.328124v20.535156c0 4.664063 3.222657 8.707032 7.765626 9.75 18.121093 4.152344 35.328124 11.289063 51.136718 21.203125 3.949219 2.480469 9.085938 1.898438 12.382813-1.398437l14.539062-14.539063 41.953125 41.953125-14.539062 14.535156c-3.296875 3.300782-3.878906 8.4375-1.398438 12.386719 9.914063 15.804688 17.046875 33.007813 21.203125 51.136719 1.039063 4.542969 5.082031 7.765625 9.746094 7.765625h20.539063v19.664063h-89.734376c-5.046874-52.527344-49.429687-93.742188-103.257812-93.742188zm0 0"/><path d="m100.691406 279.871094h21.09375c11.835938 0 21.460938 9.628906 21.460938 21.464844 0 5.519531 4.480468 10 10 10 5.523437 0 10-4.480469 10-10 0-22.863282-18.597656-41.464844-41.460938-41.464844h-21.09375c-22.863281 0-41.464844 18.601562-41.464844 41.464844v76.511718c0 22.863282 18.601563 41.464844 41.464844 41.464844h21.09375c22.863282 0 41.460938-18.601562 41.460938-41.464844 0-5.519531-4.476563-10-10-10-5.519532 0-10 4.480469-10 10 0 11.835938-9.625 21.464844-21.460938 21.464844h-21.09375c-11.835937 0-21.464844-9.628906-21.464844-21.464844v-76.511718c0-11.835938 9.628907-21.464844 21.464844-21.464844zm0 0"/><path d="m324.886719 261.875c-4.398438-1.148438-9.023438.8125-11.246094 4.78125l-52.039063 92.761719-52.039062-92.761719c-2.226562-3.96875-6.851562-5.933594-11.25-4.78125-4.402344 1.148438-7.472656 5.125-7.472656 9.675781v136.082031c0 5.523438 4.476562 10 10 10 5.523437 0 10-4.476562 10-10v-97.820312l42.039062 74.9375c1.769532 3.152344 5.101563 5.105469 8.71875 5.105469 3.617188 0 6.953125-1.953125 8.722656-5.105469l42.039063-74.9375v97.820312c0 5.523438 4.476563 10 10 10s10-4.476562 10-10v-136.082031c0-4.550781-3.070313-8.527343-7.472656-9.675781zm0 0"/><path d="m405.710938 329.59375c-14.921876 0-27.0625-12.140625-27.0625-27.066406 0-14.921875 12.140624-27.0625 27.0625-27.0625 8.726562 0 16.964843 4.246094 22.046874 11.359375 3.207032 4.496093 9.453126 5.535156 13.945313 2.328125 4.496094-3.210938 5.539063-9.453125 2.328125-13.949219-8.824219-12.359375-23.148438-19.738281-38.320312-19.738281-25.949219 0-47.0625 21.113281-47.0625 47.0625 0 25.953125 21.113281 47.066406 47.0625 47.066406 14.921874 0 27.0625 12.136719 27.0625 27.058594 0 14.925781-12.140626 27.066406-27.0625 27.066406-10.09375 0-19.28125-5.558594-23.980469-14.5-2.566407-4.890625-8.613281-6.769531-13.5-4.203125-4.890625 2.570313-6.773438 8.613281-4.203125 13.503906 8.164062 15.542969 24.136718 25.199219 41.683594 25.199219 25.949218 0 47.0625-21.113281 47.0625-47.066406 0-25.949219-21.113282-47.058594-47.0625-47.058594zm0 0"/><path d="m266 212.988281c0-5.503906-4.492188-10-10-10s-10 4.496094-10 10c0 5.507813 4.492188 10 10 10s10-4.492187 10-10zm0 0"/></g></symbol>
    <symbol id="response" xmlns="http://www.w3.org/2000/svg" xmlns:xlink="http://www.w3.org/1999/xlink"
         viewBox="0 0 473.981 473.981" style="enable-background:new 0 0 473.981 473.981;" xml:space="preserve">
      <g>
	    <path  d="M33.245,291.143V53.277c0-1.972,1.607-3.579,3.572-3.579h350.514c1.965,0,3.57,1.607,3.57,3.579
		  V234.11h33.245V53.277c0-20.307-16.508-36.824-36.815-36.824H36.817C16.51,16.452,0,32.97,0,53.277v237.866
		  c0,20.308,16.51,36.825,36.817,36.825h117.491v47.724h-18.521c-9.187,0-16.622,7.442-16.622,16.623
		  c0,9.179,7.436,16.622,16.622,16.622h152.571c9.188,0,16.623-7.443,16.623-16.622c0-9.181-7.436-16.623-16.623-16.623h-18.537
		  v-47.724h56.36v-33.245H36.817C34.853,294.723,33.245,293.115,33.245,291.143z"/>
        <path  d="M452.765,254.888h-84.588c-11.703,0-21.217,9.52-21.217,21.223v160.193
		  c0,11.706,9.514,21.225,21.217,21.225h84.588c11.704,0,21.217-9.52,21.217-21.225V276.111
		  C473.981,264.407,464.469,254.888,452.765,254.888z M371.894,279.821h77.154v139.091h-77.154V279.821z M410.463,446.239
		  c-1.558,0-2.954-0.487-4.237-1.168c-2.905-1.551-4.967-4.522-4.967-8.052c0-5.088,4.122-9.212,9.204-9.212
		  c5.096,0,9.22,4.124,9.22,9.212c0,3.53-2.046,6.501-4.967,8.052C413.416,445.752,412.021,446.239,410.463,446.239z"/>
      </g>
    </symbol>
    <symbol id="sass" xmlns="http://www.w3.org/2000/svg"  viewBox="0 0 50 50"><path d="M43.03,27.802c-1.747,0.009-3.261,0.429-4.53,1.054c-0.464-0.926-0.934-1.741-1.013-2.347 c-0.092-0.707-0.199-1.129-0.088-1.972c0.111-0.843,0.599-2.036,0.591-2.125c-0.007-0.089-0.109-0.518-1.117-0.526 c-1.008-0.007-1.87,0.194-1.972,0.46c-0.102,0.266-0.296,0.865-0.416,1.49c-0.177,0.914-2.012,4.174-3.055,5.879 c-0.341-0.666-0.631-1.252-0.691-1.716c-0.092-0.707-0.199-1.129-0.088-1.972c0.111-0.843,0.599-2.036,0.591-2.125 c-0.007-0.089-0.109-0.518-1.117-0.526c-1.008-0.007-1.87,0.194-1.972,0.46c-0.102,0.266-0.21,0.888-0.416,1.49 c-0.207,0.602-2.647,6.039-3.286,7.448c-0.326,0.718-0.609,1.295-0.809,1.689c-0.001-0.001-0.001-0.002-0.001-0.002 s-0.012,0.026-0.034,0.071c-0.171,0.335-0.273,0.521-0.273,0.521s0.001,0.003,0.003,0.007c-0.136,0.246-0.281,0.475-0.353,0.475 c-0.05,0-0.151-0.656,0.022-1.555c0.363-1.886,1.235-4.828,1.227-4.929c-0.004-0.052,0.162-0.564-0.57-0.833 c-0.711-0.26-0.965,0.174-1.03,0.175c-0.063,0.001-0.11,0.153-0.11,0.153s0.793-3.308-1.512-3.308c-1.44,0-3.436,1.576-4.42,3.004 c-0.62,0.338-1.948,1.063-3.357,1.837c-0.541,0.297-1.093,0.601-1.617,0.89c-0.036-0.039-0.071-0.079-0.108-0.118 c-2.794-2.981-7.958-5.089-7.739-9.096c0.08-1.457,0.586-5.293,9.924-9.946c7.649-3.812,13.773-2.763,14.831-0.438 c1.512,3.321-3.273,9.494-11.216,10.384c-3.027,0.339-4.62-0.834-5.017-1.271c-0.417-0.46-0.479-0.481-0.635-0.394 c-0.254,0.141-0.093,0.547,0,0.789c0.237,0.617,1.21,1.712,2.87,2.256c1.46,0.479,5.013,0.742,9.311-0.92 c4.813-1.862,8.571-7.041,7.468-11.37c-1.123-4.403-8.423-5.85-15.332-3.396c-4.112,1.461-8.563,3.754-11.764,6.747 c-3.806,3.56-4.412,6.658-4.162,7.952c0.889,4.6,7.228,7.595,9.767,9.815c-0.125,0.069-0.243,0.134-0.35,0.193 c-1.273,0.63-6.105,3.159-7.314,5.831c-1.371,3.031,0.218,5.206,1.271,5.499c3.26,0.907,6.606-0.725,8.404-3.407 c1.798-2.681,1.578-6.172,0.753-7.766c-0.01-0.02-0.022-0.039-0.032-0.059c0.329-0.195,0.664-0.392,0.996-0.587 c0.648-0.38,1.284-0.735,1.836-1.036c-0.309,0.846-0.535,1.86-0.653,3.325c-0.138,1.721,0.567,3.945,1.49,4.82 c0.406,0.385,0.895,0.394,1.205,0.394c1.074,0,1.564-0.893,2.103-1.95c0.662-1.296,1.249-2.804,1.249-2.804 s-0.737,4.075,1.271,4.075c0.731,0,1.467-0.949,1.795-1.432c0.001,0.005,0.001,0.008,0.001,0.008s0.019-0.031,0.056-0.095 c0.076-0.116,0.119-0.19,0.119-0.19s0.002-0.008,0.004-0.021c0.294-0.51,0.946-1.674,1.924-3.594 c1.263-2.48,2.475-5.586,2.475-5.586s0.113,0.76,0.482,2.015c0.217,0.739,0.679,1.556,1.043,2.339 c-0.293,0.407-0.473,0.64-0.473,0.64s0.002,0.004,0.005,0.012c-0.234,0.311-0.497,0.646-0.772,0.974 c-0.997,1.188-2.185,2.544-2.344,2.936c-0.187,0.461-0.143,0.801,0.219,1.073c0.264,0.199,0.735,0.23,1.227,0.197 c0.896-0.06,1.527-0.283,1.838-0.418c0.485-0.171,1.05-0.441,1.58-0.831c0.978-0.719,1.568-1.748,1.512-3.111 c-0.031-0.751-0.271-1.495-0.574-2.198c0.089-0.128,0.178-0.256,0.267-0.387c1.542-2.255,2.738-4.732,2.738-4.732 s0.113,0.76,0.482,2.015c0.187,0.636,0.556,1.329,0.887,2.009c-1.45,1.178-2.349,2.547-2.662,3.445 c-0.577,1.661-0.125,2.414,0.723,2.585c0.384,0.078,0.927-0.098,1.335-0.271c0.508-0.168,1.118-0.449,1.688-0.868 c0.978-0.719,1.919-1.726,1.862-3.089c-0.026-0.62-0.194-1.236-0.422-1.828c1.229-0.512,2.821-0.797,4.848-0.56 c4.349,0.508,5.202,3.223,5.039,4.359c-0.163,1.137-1.075,1.761-1.38,1.95c-0.305,0.189-0.398,0.254-0.372,0.394 c0.037,0.204,0.178,0.196,0.438,0.152c0.358-0.06,2.283-0.924,2.366-3.022C50.102,30.703,47.55,27.778,43.03,27.802z M9.512,39.102 c-1.44,1.571-3.453,2.165-4.316,1.665c-0.932-0.54-0.563-2.854,1.205-4.521c1.077-1.016,2.468-1.952,3.391-2.529 c0.21-0.126,0.518-0.312,0.893-0.537c0.062-0.035,0.097-0.055,0.097-0.055l-0.001-0.002c0.072-0.043,0.147-0.088,0.223-0.134 C11.647,35.363,11.024,37.453,9.512,39.102z M20.005,31.968c-0.502,1.223-1.552,4.352-2.191,4.184 c-0.549-0.144-0.883-2.523-0.11-4.863c0.389-1.178,1.22-2.586,1.709-3.133c0.786-0.879,1.652-1.167,1.862-0.81 C21.544,27.8,20.32,31.201,20.005,31.968z M28.675,36.105c-0.213,0.111-0.408,0.181-0.498,0.127 c-0.067-0.04,0.088-0.186,0.088-0.186s1.084-1.167,1.512-1.698c0.248-0.309,0.537-0.676,0.85-1.086 c0.003,0.041,0.004,0.082,0.004,0.122C30.627,34.782,29.277,35.725,28.675,36.105z M35.354,34.582 c-0.159-0.113-0.132-0.478,0.389-1.614c0.205-0.446,0.672-1.198,1.485-1.916c0.094,0.295,0.152,0.578,0.15,0.842 C37.367,33.653,36.112,34.31,35.354,34.582z"/></symbol>
    <symbol id="openPage" xmlns="http://www.w3.org/2000/svg" viewBox="0 0 24 24"><path d="M6 17c2.269-9.881 11-11.667 11-11.667v-3.333l7 6.637-7 6.696v-3.333s-6.17-.171-11 5zm12 .145v2.855h-16v-12h6.598c.768-.787 1.561-1.449 2.339-2h-10.937v16h20v-6.769l-2 1.914z"/></symbol>
    <symbol id="polygon" viewBox="0 0 100 100" preserveAspectRatio="none">
        <path d="M0 0 L100 0 L0 30 Z"/>
    </symbol>
    <symbol id="wave" viewBox="0 0 1280 100" xmlns="http://www.w3.org/2000/svg"
         preserveAspectRatio="xMinYMin slice">
        <path d="M321 18.5C157 18.5 81.5 35.6667 0 43V0.125648H1279.05C1200.41 22.1254 1045.67 55 871 55C696 55 485 18.5 321 18.5Z" stroke="transparent"/>
    </symbol>
    <symbol id="envelope"  xmlns="http://www.w3.org/2000/svg"  viewBox="0 0 570 511.67482"><path d="M879.99927,389.83741a.99678.99678,0,0,1-.5708-.1792L602.86963,197.05469a5.01548,5.01548,0,0,0-5.72852.00977L322.57434,389.65626a1.00019,1.00019,0,0,1-1.14868-1.6377l274.567-192.5918a7.02216,7.02216,0,0,1,8.02-.01318l276.55883,192.603a1.00019,1.00019,0,0,1-.57226,1.8208Z" transform="translate(-315 -194.16259)" fill="#3f3d56"/><polygon points="23.264 202.502 285.276 8.319 549.276 216.319 298.776 364.819 162.776 333.819 23.264 202.502" fill="#e6e6e6"/><path d="M489.25553,650.70367H359.81522a6.04737,6.04737,0,1,1,0-12.09473H489.25553a6.04737,6.04737,0,1,1,0,12.09473Z" transform="translate(-315 -194.16259)" fill="#278ad5"/><path d="M406.25553,624.70367H359.81522a6.04737,6.04737,0,1,1,0-12.09473h46.44031a6.04737,6.04737,0,1,1,0,12.09473Z" transform="translate(-315 -194.16259)" fill="#278ad5"/><path d="M603.96016,504.82207a7.56366,7.56366,0,0,1-2.86914-.562L439.5002,437.21123v-209.874a7.00817,7.00817,0,0,1,7-7h310a7.00818,7.00818,0,0,1,7,7v210.0205l-.30371.12989L606.91622,504.22734A7.61624,7.61624,0,0,1,603.96016,504.82207Z" transform="translate(-315 -194.16259)" fill="#fff"/><path d="M603.96016,505.32158a8.07177,8.07177,0,0,1-3.05957-.59863L439.0002,437.54521v-210.208a7.50851,7.50851,0,0,1,7.5-7.5h310a7.50851,7.50851,0,0,1,7.5,7.5V437.68779l-156.8877,66.999A8.10957,8.10957,0,0,1,603.96016,505.32158Zm-162.96-69.1123,160.66309,66.66455a6.1182,6.1182,0,0,0,4.668-.02784l155.669-66.47851V227.33721a5.50653,5.50653,0,0,0-5.5-5.5h-310a5.50653,5.50653,0,0,0-5.5,5.5Z" transform="translate(-315 -194.16259)" fill="#3f3d56"/><path d="M878,387.83741h-.2002L763,436.85743l-157.06982,67.07a5.06614,5.06614,0,0,1-3.88038.02L440,436.71741l-117.62012-48.8-.17968-.08H322a7.00778,7.00778,0,0,0-7,7v304a7.00779,7.00779,0,0,0,7,7H878a7.00779,7.00779,0,0,0,7-7v-304A7.00778,7.00778,0,0,0,878,387.83741Zm5,311a5.002,5.002,0,0,1-5,5H322a5.002,5.002,0,0,1-5-5v-304a5.01106,5.01106,0,0,1,4.81006-5L440,438.87739l161.28027,66.92a7.12081,7.12081,0,0,0,5.43994-.03L763,439.02741l115.2002-49.19a5.01621,5.01621,0,0,1,4.7998,5Z" transform="translate(-315 -194.16259)" fill="#3f3d56"/><path d="M602.345,445.30958a27.49862,27.49862,0,0,1-16.5459-5.4961l-.2959-.22217-62.311-47.70752a27.68337,27.68337,0,1,1,33.67407-43.94921l40.36035,30.94775,95.37793-124.38672a27.68235,27.68235,0,0,1,38.81323-5.12353l-.593.80517.6084-.79346a27.71447,27.71447,0,0,1,5.12353,38.81348L624.36938,434.50586A27.69447,27.69447,0,0,1,602.345,445.30958Z" transform="translate(-315 -194.16259)" fill="#278ad5"/></symbol>
    <symbol id="delivery" xmlns="http://www.w3.org/2000/svg" viewBox="0 0 912.92081 680.22808"><title>delivery_address</title><rect x="102.00233" y="641.27035" width="556.10756" height="2.36139" fill="#3f3d56"/><path d="M540.45658,426.2614s-11.802,53.109,11.802,43.66742,9.44161-46.02782,9.44161-46.02782Z" transform="translate(-143.53959 -109.88596)" fill="#ffb9b9"/><path d="M761.15409,443.96441s28.32482,34.22581,10.62181,41.307-27.14462-31.86542-24.78422-35.406S761.15409,443.96441,761.15409,443.96441Z" transform="translate(-143.53959 -109.88596)" fill="#ffb9b9"/><circle cx="550.34306" cy="56.7313" r="35.40602" fill="#ffb9b9"/><polygon points="523.789 70.304 519.068 106.89 558.014 121.052 566.276 79.745 523.789 70.304" fill="#ffb9b9"/><path d="M689.16185,216.18569s-20.00721-9.87712-24.166-17.92077l-8.8796,8.47916s-63.73084-5.901-73.17244,25.96442-1.1802,147.52507-1.1802,147.52507-12.98221,51.92883-9.44161,53.109,47.208,22.42381,108.57846,10.62181c0,0,27.14461-4.72081,31.86542-1.18021s-2.3604-56.64962-2.3604-56.64962,47.208-106.21806,38.94662-119.20027-44.84763-40.12682-44.84763-40.12682l2.3604-12.9822S690.34205,220.90649,689.16185,216.18569Z" transform="translate(-143.53959 -109.88596)" fill="#cfcce0"/><path d="M592.3854,224.44709s-21.24361,10.62181-24.78421,27.14462S531.015,405.01779,534.55557,413.27919,536.916,432.1624,536.916,432.1624l30.68521-3.5406s-5.901-8.26141-2.3604-11.802,7.0812-15.34261,4.7208-20.06341-4.7208,3.5406,8.26141-11.802S620.71022,229.1679,592.3854,224.44709Z" transform="translate(-143.53959 -109.88596)" fill="#cfcce0"/><path d="M742.27088,264.57391s10.03171.5901,12.39211,17.11291,6.4911,118.61016,6.4911,118.61016,15.34261,33.04562,9.44161,37.76642-2.36041,11.802-2.36041,11.802l-21.24361,5.901-46.02782-71.99224Z" transform="translate(-143.53959 -109.88596)" fill="#cfcce0"/><path d="M575.8626,428.6218s-7.08121,1.1802-7.08121,27.14461-12.9822,106.21806-4.7208,119.20026,9.4416,129.82207,9.4416,129.82207,22.42382,9.4416,41.307-21.24361l2.3604-16.52281,4.7208-80.25364,18.88321-100.317L666.738,597.39048s-3.5406,133.36267,9.44161,133.36267,37.76642-10.6218,37.76642-10.6218,5.901-11.802,3.5406-17.703-4.7208-4.7208-2.3604-9.44161,5.901-127.46166,5.901-127.46166-4.7208-126.28147-10.6218-129.82207S575.8626,428.6218,575.8626,428.6218Z" transform="translate(-143.53959 -109.88596)" fill="#2f2e41"/><path d="M575.8626,700.06794l-18.88321,20.06341s-34.22582,31.86541-4.72081,33.04561,46.02783-18.88321,46.02783-21.24361,1.1802-10.6218,9.4416-10.6218,28.32482-20.06341,23.604-28.32482-18.88321-11.802-18.88321-11.802Z" transform="translate(-143.53959 -109.88596)" fill="#2f2e41"/><path d="M677.35985,726.03235s-14.16241,28.32482-5.901,34.22582,10.6218,8.2614,10.6218,8.2614,7.0812-1.1802,5.901,9.44161,42.48723,16.52281,44.84763,8.2614,1.1802-24.78421-3.54061-29.505-18.8832-37.76642-18.8832-37.76642S695.06286,701.24814,677.35985,726.03235Z" transform="translate(-143.53959 -109.88596)" fill="#2f2e41"/><path d="M729.61563,138.18723l6.66977-.94746s-9.28508-17.08977-27.25616-20.19295l6.30833-4.25771s-10.96188-7.83392-25.12862,2.2356c-7.44718,5.2933-16.09389,11.54151-22.4543,19.406l-6.50628-1.59008,1.25421,6.64282-10.96544,3.65643L661.55472,144.45a34.39538,34.39538,0,0,0-2.6885,9.85288,13.20963,13.20963,0,0,0,2.6474,9.54283h0s11.346-13.75438,11.94045-16.18661l-1.486,6.08055s7.41277-3.98771,8.30439-7.636l2.27357,5.06625,3.29154-6.2837L704.6381,156.569l-1.97636-6.28234,12.25716,4.92866-3.33623-7.90348s12.428,11.41415,11.3458,18.23779c-1.08239,6.8235,1.57189,14.18856,1.57189,14.18856S743.40339,151.22239,729.61563,138.18723Z" transform="translate(-143.53959 -109.88596)" fill="#2f2e41"/><rect x="723.92081" y="429.45048" width="189" height="2.26159" fill="#3f3d56"/><rect x="160.89644" y="603.7084" width="45.55804" height="45.55804" fill="#cfcce0"/><path d="M343.99959,753.15792H296.04376V705.20209h47.95583Zm-45.558-2.39779H341.6018V707.59988H298.44155Z" transform="translate(-143.53959 -109.88596)" fill="#3f3d56"/><rect x="375.34822" y="320.09176" width="30.9126" height="29.84223" transform="translate(-238.07349 53.63808) rotate(-21.14419)" fill="#f2f2f2"/><path d="M405.39252,341.159l-30.34888,11.73755-11.33113-29.298L394.06139,311.861Zm-29.398,9.68577,27.314-10.5638-10.198-26.36821-27.314,10.5638Z" transform="translate(-143.53959 -109.88596)" fill="#3f3d56"/><rect x="895.02761" y="630.14139" width="30.9126" height="29.84223" transform="translate(1080.94399 -535.56656) rotate(71.02706)" fill="#f2f2f2"/><path d="M903.78947,659.40718,893.21015,628.6354l29.70628-10.213,10.57932,30.77178Zm-8.565-29.74384,9.52139,27.6946,26.73565-9.1917-9.52139-27.69461Z" transform="translate(-143.53959 -109.88596)" fill="#3f3d56"/><path d="M286.8802,509.50788c16.90362.3626,30.35024,12.61229,30.35024,12.61229s-13.95955,11.6618-30.86317,11.29919S256.017,520.80707,256.017,520.80707,269.97659,509.14527,286.8802,509.50788Z" transform="translate(-143.53959 -109.88596)" fill="#278ad5"/><path d="M201.89746,451.80706c15.27169,7.2553,32.78343,2.33538,32.78343,2.33538s-7.24856-16.68308-22.52025-23.93838-32.78342-2.33537-32.78342-2.33537S186.62577,444.55177,201.89746,451.80706Z" transform="translate(-143.53959 -109.88596)" fill="#278ad5"/><path d="M203.44987,444.59715c16.83734-1.53875,31.575,9.12272,31.575,9.12272s-12.561,13.15627-29.39836,14.695-31.575-9.12272-31.575-9.12272S186.61253,446.1359,203.44987,444.59715Z" transform="translate(-143.53959 -109.88596)" fill="#3f3d56"/><path d="M265.17029,447.51226c-1.61385,16.8303,8.98175,31.61542,8.98175,31.61542s13.21218-12.5022,14.826-29.3325-8.98175-31.61543-8.98175-31.61543S266.78414,430.682,265.17029,447.51226Z" transform="translate(-143.53959 -109.88596)" fill="#3f3d56"/><path d="M344.46582,550.732c-8.83127,14.41779-5.79289,32.352-5.79289,32.352s17.3567-5.44166,26.188-19.85944,5.79289-32.352,5.79289-32.352S353.29709,536.31423,344.46582,550.732Z" transform="translate(-143.53959 -109.88596)" fill="#3f3d56"/><path d="M318.84517,707.49034l1.287-.8699a40.32083,40.32083,0,0,1-7.11618-22.36062c.036-11.69395,5.77986-22.51,11.33484-32.97005,1.03106-1.94153,2.05871-3.877,3.0473-5.81095a126.84805,126.84805,0,0,0,9.86618-24.7682c8.61631-32.01976.1331-69.797-22.69206-101.05455-18.10707-24.79626-45.09932-46.47925-82.51821-66.2882l-.72655,1.37273c37.20577,19.69594,64.0251,41.2299,81.99035,65.83163,22.55061,30.881,30.94168,68.16527,22.44633,99.73491a125.3412,125.3412,0,0,1-9.74862,24.46484c-.98556,1.92675-2.00941,3.85463-3.03668,5.78934-5.64334,10.62686-11.47894,21.61548-11.5161,33.69395A41.88823,41.88823,0,0,0,318.84517,707.49034Z" transform="translate(-143.53959 -109.88596)" fill="#3f3d56"/><circle cx="14.75596" cy="330.76716" r="14.75565" fill="#3f3d56"/><polygon points="818.044 417.926 628.109 349.709 662.018 255.296 780.281 226.293 851.954 323.514 818.044 417.926" fill="#2f2e41"/><path d="M938.57461,509.09041,796.6355,454.984c36.8477-49.35662,53.32538-84.17278,53.33749-138.959L991.9121,370.1314C958.93688,416.97245,945.147,452.18482,938.57461,509.09041Z" transform="translate(-143.53959 -109.88596)" fill="#f2f2f2"/><rect x="872.979" y="363.39985" width="78.69621" height="3.66029" transform="translate(46.39006 -410.89587) rotate(20.86657)" fill="#3f3d56"/><rect x="867.76392" y="377.08073" width="78.69621" height="3.66029" transform="translate(50.92105 -408.141) rotate(20.86657)" fill="#3f3d56"/><rect x="862.54884" y="390.7616" width="78.69621" height="3.66029" transform="translate(55.45204 -405.38614) rotate(20.86657)" fill="#3f3d56"/><rect x="857.33377" y="404.44248" width="78.69621" height="3.66029" transform="translate(59.98302 -402.63127) rotate(20.86657)" fill="#3f3d56"/><rect x="852.11869" y="418.12336" width="78.69621" height="3.66029" transform="translate(64.51401 -399.8764) rotate(20.86657)" fill="#3f3d56"/><rect x="846.90362" y="431.80424" width="78.69621" height="3.66029" transform="translate(69.045 -397.12153) rotate(20.86657)" fill="#3f3d56"/><rect x="841.68854" y="445.48512" width="78.69621" height="3.66029" transform="translate(73.57599 -394.36666) rotate(20.86657)" fill="#3f3d56"/><rect x="836.47346" y="459.16599" width="78.69621" height="3.66029" transform="translate(78.10697 -391.61179) rotate(20.86657)" fill="#3f3d56"/><polygon points="813.656 430.144 623.721 361.927 662.018 255.296 742.226 330.502 851.954 323.514 813.656 430.144" fill="#3f3d56"/><polygon points="717.148 396.545 622.442 362.53 645.518 298.277 647.401 298.953 625.001 361.323 717.824 394.662 717.148 396.545" fill="#278ad5"/><rect x="796.39003" y="432.76595" width="29.50502" height="11.80201" transform="matrix(0.94114, 0.33802, -0.33802, 0.94114, 52.48444, -358.24895)" fill="#278ad5"/><polygon points="369.521 642.111 220.865 642.032 222.032 558.576 295.91 591.781 370.688 560.655 369.521 642.111" fill="#3f3d56"/><rect x="376.17876" y="713.97725" width="21.73552" height="8.69421" transform="translate(-133.45769 -115.22766) rotate(0.80117)" fill="#278ad5"/><polygon points="371.185 560.541 296.045 598.848 221.641 560.541 221.641 558.331 371.185 558.331 371.185 560.541" fill="#278ad5"/><ellipse cx="923.32742" cy="345.64469" rx="9.02966" ry="25" transform="translate(127.93044 975.41116) rotate(-69.13343)" fill="#278ad5"/><path d="M967.10457,212.43884a38,38,0,0,0-47.56929,25.00326c-6.23144,20.04035,10.751,93.40458,10.751,93.40458s55.59009-50.7982,61.82152-70.83855A38,38,0,0,0,967.10457,212.43884ZM950.477,265.91335a18,18,0,1,1,22.53282-11.84365A18,18,0,0,1,950.477,265.91335Z" transform="translate(-143.53959 -109.88596)" fill="#278ad5"/></symbol>
		<symbol id="heart" xmlns="http://www.w3.org/2000/svg" viewBox="0 0 24 24"><path d="M12 4.248c-3.148-5.402-12-3.825-12 2.944 0 4.661 5.571 9.427 12 15.808 6.43-6.381 12-11.147 12-15.808 0-6.792-8.875-8.306-12-2.944z"/></symbol>
    <symbol id="jest" enable-background="new 0 0 398.3 439.9" viewBox="0 0 398.3 439.9" xmlns="http://www.w3.org/2000/svg"><path d="m334.9 218.1c-.5.3-18.3-2.7-40.7-4.2-18.2-1.2-39.5-1.2-56.7 0-14 .9-32.4-6.1-34.6 2.3-8.2 31.4-26 58.7-48.5 79.9-17 16-36.4 28.1-57.4 35.6-25-12.8-36.8-41.4-26.2-66.4 8.4-19.9 18.3-41.7.1-46.7-13.2-3.6-20.5 9-25.5 22.5-9.7 25.9-28.2 52.7-33.5 84.5-5.6 33.5 0 69.1 29 89.3 67.6 46.8 140.9-29 218.2-48.1 28-6.9 58.8-5.8 83.5-20.1 18.5-10.7 30.8-28.5 34.2-48.5 5.6-32.2-11.1-64.1-41.9-80.1z" fill="#278ad5" stroke="#fff" stroke-width="20"/><path d="m202.9 216.2c-8.2 31.4-26 58.7-48.5 79.9-17 16-36.4 28.1-57.4 35.6-25-12.8-36.8-41.4-26.2-66.4 8.4-19.9 18.3-41.7.1-46.7-13.2-3.6-20.5 9-25.5 22.5-9.7 25.9-28.2 52.7-33.5 84.5-5.6 33.5 0 69.1 29 89.3 67.6 46.8 140.9-29 218.2-48.1 28-6.9 58.8-5.8 83.5-20.1 18.5-10.7 30.8-28.5 34.2-48.5 5.6-32.1-11.1-64.1-41.9-80" fill="none" stroke="#fff" stroke-width="20"/><path d="m264.9 91.2 54.3 110.8 65.1-192h-239l65 191.6z" fill="#278ad5"/><path d="m264.9 91.2 54.3 110.8 65.1-192h-239l65 191.6z" fill="none" stroke="#fff" stroke-width="20"/><circle cx="199" cy="216.6" fill="#278ad5" r="40.9"/><g stroke="#fff" stroke-width="20"><circle cx="199" cy="216.6" fill="none" r="40.9"/><circle cx="332.4" cy="216.6" fill="#278ad5" r="40.9"/><circle cx="332.4" cy="216.6" fill="none" r="40.9"/></g><circle cx="65.1" cy="216.9" fill="#278ad5" r="40.9"/><circle cx="65.1" cy="216.9" fill="none" r="40.9" stroke="#fff" stroke-width="20"/></symbol>
    <symbol id='next' viewBox=".145 .207 147.685 89.291"  xmlns="http://www.w3.org/2000/svg"><path d="m34.992 23.495h27.855v2.219h-25.301v16.699h23.792v2.219h-23.792v18.334h25.591v2.219h-28.145zm30.35 0h2.96l13.115 18.334 13.405-18.334 18.233-23.288-29.955 43.549 15.436 21.429h-3.076l-14.043-19.502-14.101 19.502h-3.018l15.552-21.429-14.507-20.261zm34.297 2.219v-2.219h31.742v2.219h-14.623v39.47h-2.554v-39.47h-14.564zm-99.494-2.219h3.192l44.011 66.003-18.188-24.313-26.346-38.537-.116 38.537h-2.553zm130.98 38.801c-.523 0-.914-.405-.914-.928 0-.524.391-.929.913-.929.528 0 .913.405.913.929 0 .523-.385.928-.913.928zm2.508-2.443h1.367c.019.742.56 1.24 1.354 1.24.888 0 1.391-.535 1.391-1.539v-6.356h1.391v6.362c0 1.808-1.043 2.849-2.77 2.849-1.62 0-2.732-1.01-2.732-2.556zm7.322-.08h1.379c.118.853.95 1.395 2.149 1.395 1.117 0 1.937-.58 1.937-1.377 0-.685-.521-1.097-1.708-1.377l-1.155-.28c-1.62-.38-2.36-1.166-2.36-2.487 0-1.602 1.304-2.668 3.26-2.668 1.82 0 3.15 1.066 3.23 2.58h-1.354c-.13-.828-.85-1.346-1.894-1.346-1.1 0-1.832.53-1.832 1.34 0 .642.472 1.01 1.64 1.284l.987.243c1.838.43 2.596 1.178 2.596 2.53 0 1.72-1.33 2.799-3.453 2.799-1.987 0-3.323-1.029-3.422-2.637z"/></symbol>
</svg>
